<svg xmlns="http://www.w3.org/2000/svg" xmlns:xlink="http://www.w3.org/1999/xlink" xmlns:lucid="lucid" width="4182" height="1198.5"><g transform="translate(2561 1086)" lucid:page-tab-id="0_0"><path d="M-3000-1500h5000V500h-5000z" fill="#fff"/><path d="M-1300-38.5h300v150h-300z" stroke="#333" stroke-width="2" fill="#fff"/><path d="M-1300-2.25h300m-300 56.76h300" stroke="#333" stroke-width="2" fill="none"/><use xlink:href="#a" transform="matrix(1,0,0,1,-1292,-30.5) translate(38.985244140624985 16.589501953125)"/><path d="M-2560-380h240v150h-240z" stroke="#333" stroke-width="2" fill="#fff"/><path d="M-2560-343.75h240M-2560-287h240" stroke="#333" stroke-width="2" fill="none"/><use xlink:href="#b" transform="matrix(1,0,0,1,-2552,-372) translate(30.915625000000006 16.589501953125)"/><path d="M-1150-40.5v-88.25a6 6 0 0 0-6-6h-1278a6 6 0 0 1-6-6V-228" stroke="#5e5e5e" stroke-width="2" fill="none"/><path d="M-1149.03-39.5h-1.94v-1.03h1.94zM-2439.03-227.97h-1.94V-229h1.94z" stroke="#5e5e5e" stroke-width=".05" fill="#5e5e5e"/><use xlink:href="#c" transform="matrix(1,0,0,1,-2454.808798828125,-229.1273730468746) translate(0 16.216875)"/><path d="M-1760-380h300v150h-300z" stroke="#333" stroke-width="2" fill="#fff"/><path d="M-1760-343.75h300m-300 77.27h300" stroke="#333" stroke-width="2" fill="none"/><use xlink:href="#d" transform="matrix(1,0,0,1,-1752,-372) translate(29.92864257812498 16.589501953125)"/><use xlink:href="#e" transform="matrix(1,0,0,1,-1748,-335.74525390625) translate(0 16.834755859375)"/><use xlink:href="#e" transform="matrix(1,0,0,1,-1748,-335.74525390625) translate(0 37.089501953125)"/><use xlink:href="#f" transform="matrix(1,0,0,1,-1748,-335.74525390625) translate(0 57.344248046875)"/><path d="M-1300-381h300v150h-300z" stroke="#333" stroke-width="2" fill="#fff"/><path d="M-1300-344.75h300M-1300-288h300" stroke="#333" stroke-width="2" fill="none"/><use xlink:href="#g" transform="matrix(1,0,0,1,-1292,-373) translate(43.68928222656247 16.589501953125)"/><path d="M-1150-40.5V-229" stroke="#5e5e5e" stroke-width="2" fill="none"/><path d="M-1149.03-39.5h-1.94v-1.03h1.94zM-1149.03-228.97h-1.94V-230h1.94z" stroke="#5e5e5e" stroke-width=".05" fill="#5e5e5e"/><use xlink:href="#c" transform="matrix(1,0,0,1,-1164.808798828125,-230.12737304687494) translate(0 16.216875)"/><path d="M-1150-40.5v-87.75a6 6 0 0 0-6-6h-878a6 6 0 0 1-6-6V-228" stroke="#5e5e5e" stroke-width="2" fill="none"/><path d="M-1149.03-39.5h-1.94v-1.03h1.94zM-2039.03-227.97h-1.94V-229h1.94z" stroke="#5e5e5e" stroke-width=".05" fill="#5e5e5e"/><use xlink:href="#c" transform="matrix(1,0,0,1,-2054.808798828125,-229.12737304687485) translate(0 16.216875)"/><path d="M-2160-380h240v150h-240z" stroke="#333" stroke-width="2" fill="#fff"/><path d="M-2160-343.75h240M-2160-287h240" stroke="#333" stroke-width="2" fill="none"/><use xlink:href="#h" transform="matrix(1,0,0,1,-2152,-372) translate(54.29277343749999 16.589501953125)"/><path d="M-1150-40.5v-87.75a6 6 0 0 1 6-6h448a6 6 0 0 0 6-6V-228" stroke="#5e5e5e" stroke-width="2" fill="none"/><path d="M-1149.03-39.5h-1.94v-1.03h1.94zM-689.02-227.97H-691V-229h1.96z" stroke="#5e5e5e" stroke-width=".05" fill="#5e5e5e"/><use xlink:href="#c" transform="matrix(1,0,0,1,-704.8087988281251,-229.1273730468752) translate(0 16.216875)"/><path d="M-2500-760h300v139h-300z" stroke="#333" stroke-width="2" fill="#fff"/><path d="M-2500-723.75h300m-300 51.5h300" stroke="#333" stroke-width="2" fill="none"/><use xlink:href="#i" transform="matrix(1,0,0,1,-2492,-752) translate(46.70542480468748 16.589501953125)"/><path d="M-1150-40.5v-87.75a6 6 0 0 1 6-6H224a6 6 0 0 0 6-6V-229" stroke="#5e5e5e" stroke-width="2" fill="none"/><path d="M-1149.03-39.5h-1.94v-1.03h1.94zM230.97-228.97h-1.94V-230h1.94z" stroke="#5e5e5e" stroke-width=".05" fill="#5e5e5e"/><use xlink:href="#c" transform="matrix(1,0,0,1,-1142,-59.627373046875) translate(0 16.216875)"/><use xlink:href="#c" transform="matrix(1,0,0,1,215.19120117187498,-230.1273730468744) translate(0 16.216875)"/><path d="M-380-381h300v150h-300z" stroke="#333" stroke-width="2" fill="#fff"/><path d="M-380-344.75h300M-380-288h300" stroke="#333" stroke-width="2" fill="none"/><use xlink:href="#j" transform="matrix(1,0,0,1,-372,-373) translate(46.48064453125001 16.589501953125)"/><path d="M-840-380h300v150h-300z" stroke="#333" stroke-width="2" fill="#fff"/><path d="M-840-343.75h300M-840-287h300" stroke="#333" stroke-width="2" fill="none"/><use xlink:href="#k" transform="matrix(1,0,0,1,-832,-372) translate(59.836679687499995 16.589501953125)"/><path d="M-1720-760.5h300v140h-300z" stroke="#333" stroke-width="2" fill="#fff"/><path d="M-1720-724.25h300m-300 51.76h300" stroke="#333" stroke-width="2" fill="none"/><use xlink:href="#l" transform="matrix(1,0,0,1,-1712,-752.5) translate(61.070927734374976 16.589501953125)"/><path d="M-1150-383v-111.75a6 6 0 0 0-6-6h-408a6 6 0 0 1-6-6V-601" stroke="#5e5e5e" stroke-width="2" fill="none"/><path d="M-1149.03-382h-1.94v-1.03h1.94z" stroke="#5e5e5e" stroke-width=".05" fill="#5e5e5e"/><path d="M-1570-616.26l4.63 14.26h-9.27z" stroke="#5e5e5e" stroke-width="2" fill="#5e5e5e"/><use xlink:href="#c" transform="matrix(1,0,0,1,-1589.4440537437492,-619.6273730468753) translate(0 16.216875)"/><path d="M-80-760.5h300v141H-80z" stroke="#333" stroke-width="2" fill="#fff"/><path d="M-80-724.25h300M-80-672h300" stroke="#333" stroke-width="2" fill="none"/><use xlink:href="#m" transform="matrix(1,0,0,1,-72,-752.5) translate(35.95275390624998 16.589501953125)"/><path d="M-1140-760.5h300v140h-300z" stroke="#333" stroke-width="2" fill="#fff"/><path d="M-1140-724.25h300m-300 51.76h300" stroke="#333" stroke-width="2" fill="none"/><use xlink:href="#n" transform="matrix(1,0,0,1,-1132,-752.5) translate(65.21097167968749 16.589501953125)"/><path d="M-1150-383v-111.75a6 6 0 0 1 6-6h148a6 6 0 0 0 6-6V-601" stroke="#5e5e5e" stroke-width="2" fill="none"/><path d="M-1149.03-382h-1.94v-1.03h1.94z" stroke="#5e5e5e" stroke-width=".05" fill="#5e5e5e"/><path d="M-990-616.26l4.63 14.26h-9.26z" stroke="#5e5e5e" stroke-width="2" fill="#5e5e5e"/><use xlink:href="#o" transform="matrix(1,0,0,1,-1027.7779502281242,-619.6273730468749) translate(0 16.216875)"/><path d="M-1410-760.5h260v140h-260z" stroke="#333" stroke-width="2" fill="#fff"/><path d="M-1410-724.25h260m-260 51.8h260" stroke="#333" stroke-width="2" fill="none"/><use xlink:href="#p" transform="matrix(1,0,0,1,-1402,-752.5) translate(70.7214892578125 16.589501953125)"/><path d="M-1150-383v-111.75a6 6 0 0 0-6-6h-118a6 6 0 0 1-6-6V-601" stroke="#5e5e5e" stroke-width="2" fill="none"/><path d="M-1149.03-382h-1.94v-1.03h1.94z" stroke="#5e5e5e" stroke-width=".05" fill="#5e5e5e"/><path d="M-1280-616.26l4.63 14.26h-9.27z" stroke="#5e5e5e" stroke-width="2" fill="#5e5e5e"/><use xlink:href="#c" transform="matrix(1,0,0,1,-1142,-402.127373046875) translate(0 16.216875)"/><use xlink:href="#o" transform="matrix(1,0,0,1,-1317.7779502281242,-619.627373046875) translate(0 16.216875)"/><path d="M-420-760h300v140h-300z" stroke="#333" stroke-width="2" fill="#fff"/><path d="M-420-723.75h300m-300 52h300" stroke="#333" stroke-width="2" fill="none"/><use xlink:href="#q" transform="matrix(1,0,0,1,-412,-752) translate(52.63962402343746 16.589501953125)"/><path d="M-2180-760.5h300v140h-300z" stroke="#333" stroke-width="2" fill="#fff"/><path d="M-2180-724.25h300m-300 51.76h300" stroke="#333" stroke-width="2" fill="none"/><use xlink:href="#r" transform="matrix(1,0,0,1,-2172,-752.5) translate(53.23631347656247 16.589501953125)"/><path d="M-1790-1085h300v150h-300z" stroke="#333" stroke-width="2" fill="#fff"/><path d="M-1790-1048.74h300M-1790-992h300" stroke="#333" stroke-width="2" fill="none"/><use xlink:href="#s" transform="matrix(1,0,0,1,-1782,-1077) translate(90.81548828125 16.589501953125)"/><path d="M-1460-1085h300v150h-300z" stroke="#333" stroke-width="2" fill="#fff"/><path d="M-1460-1048.74h300M-1460-992h300" stroke="#333" stroke-width="2" fill="none"/><use xlink:href="#t" transform="matrix(1,0,0,1,-1452,-1077) translate(84.29686035156249 16.589501953125)"/><path d="M-1130-1085h300v150h-300z" stroke="#333" stroke-width="2" fill="#fff"/><path d="M-1130-1048.74h300M-1130-992h300" stroke="#333" stroke-width="2" fill="none"/><use xlink:href="#u" transform="matrix(1,0,0,1,-1122,-1077) translate(119.824404296875 16.589501953125)"/><path d="M-1279.03-762.5h-1.94v-2.97h1.94zm0-6.93h-1.94v-5.95h1.94zm0-9.9h-1.94v-5.95h1.94zm0-9.92h-1.94v-5.94h1.94zm0-9.9h-1.94v-5.95h1.94zm0-9.9h-1.94V-815h1.94zm0-9.92h-1.94v-5.94h1.94zm0-9.9h-1.94v-5.95h1.94zm-.33-15.04l.25 1.06.07 1.05v3.02h-1.94v-2.93l-.07-.84-.18-.76-.34-.8 1.8-.75zm-5.55-4.74l1.06.25.94.4-.75 1.8-.8-.33-.76-.18-.84-.07h-2.66v-1.96h2.74zm-7.4 1.87h-5.4v-1.96h5.4zm-13.25-2.2l.76.18.84.07h2.66v1.96h-2.74l-1.05-.1-1.06-.24-.94-.4.75-1.8zm-3.48-4.82l.07.84.18.76.34.8-1.8.75-.4-.94-.25-1.06-.07-1.05v-.23h1.94zm0-21.64h-1.94v-1.98h1.94zm0-6.1h-1.94v-6.17h1.94zm0-10.3h-1.94V-898h1.94zm0-10.28h-1.94v-6.17h1.94zm0-10.3h-1.94v-3.08h1.94z" stroke="#5e5e5e" stroke-width=".05" fill="#5e5e5e"/><path d="M-1279.03-761.5h-1.94v-1.03h1.94z" fill="#5e5e5e"/><path stroke="#5e5e5e" stroke-width=".05" fill="#5e5e5e"/><path d="M-1305.37-916.5h-9.27l4.64-14.26z" fill="#5e5e5e"/><path d="M-1304.02-915.52h-11.96l5.98-18.4zm-9.27-1.95h6.6l-3.3-10.14z" stroke="#5e5e5e" stroke-width=".05" fill="#5e5e5e"/><use xlink:href="#v" transform="matrix(1,0,0,1,-1366.7491319444443,-875.4379006410256) translate(0.005000000000002558 17.22222222222222)"/><path d="M-1279.03-762.5h-1.94v-2.97h1.94zm0-6.93h-1.94v-5.95h1.94zm0-9.9h-1.94v-5.95h1.94zm0-9.92h-1.94v-5.94h1.94zm0-9.9h-1.94v-5.95h1.94zm0-9.9h-1.94V-815h1.94zm0-9.92h-1.94v-5.94h1.94zm0-9.9h-1.94v-5.95h1.94zm.6-15.23l-.35.8-.18.76-.07.83v2.92h-1.94v-3l.08-1.06.26-1.07.4-.95zm7.4-2.67h-2.93l-.83.06-.75.17-.8.33-.75-1.8.94-.4 1.07-.24 1.06-.1h3.02zm9.94 0h-5.95v-1.96h5.96zm9.94 0h-5.96v-1.96h5.96zm9.93 0h-5.96v-1.96h5.97zm9.93 0h-5.96v-1.96h5.96zm9.93 0h-5.95v-1.96h5.95zm9.94 0h-5.96v-1.96h5.97zm9.93 0h-5.96v-1.96h5.96zm9.93 0h-5.96v-1.96h5.96zm9.93 0h-5.96v-1.96h5.96zm9.93 0h-5.97v-1.96h5.96zm9.92 0h-5.96v-1.96h5.96zm129.1 0h-5.95v-1.96h5.95zm9.94 0h-5.96v-1.96h5.96zm9.93 0h-5.97v-1.96h5.96zm9.92 0h-5.96v-1.96h5.96zm9.93 0h-5.96v-1.96h5.95zm10.05-.73l-.94.4-1.07.24-1.06.1h-3.02v-1.97h2.94l.83-.06.75-.17.8-.33zm-59.7.73h-3.58v-1.96h3.57zm63.57-6.94l-.08 1.04-.26 1.07-.4.95-1.8-.75.34-.8.18-.76.06-.83v-3.04h1.96zm0-7.25h-1.95v-6.18h1.96zm0-10.3h-1.95v-6.17h1.96zm0-10.3h-1.95v-6.16h1.96zm0-10.28h-1.95V-898h1.96zm0-10.3h-1.95v-6.16h1.96zm0-10.28h-1.95v-3.1h1.96z" stroke="#5e5e5e" stroke-width=".05" fill="#5e5e5e"/><path d="M-1279.03-761.5h-1.94v-1.03h1.94z" fill="#5e5e5e"/><path stroke="#5e5e5e" stroke-width=".05" fill="#5e5e5e"/><path d="M-975.37-916.5h-9.26l4.63-14.26z" fill="#5e5e5e"/><path d="M-974.02-915.52h-11.96l5.98-18.4zm-9.27-1.95h6.6l-3.3-10.14z" stroke="#5e5e5e" stroke-width=".05" fill="#5e5e5e"/><use xlink:href="#v" transform="matrix(1,0,0,1,-1159.6769153054515,-858.5052083333334) translate(0.005000000000002558 17.22222222222222)"/><path d="M-1279.03-762.5h-1.94v-2.97h1.94zm0-6.93h-1.94v-5.95h1.94zm0-9.9h-1.94v-5.95h1.94zm0-9.92h-1.94v-5.94h1.94zm0-9.9h-1.94v-5.95h1.94zm0-9.9h-1.94V-815h1.94zm0-9.92h-1.94v-5.94h1.94zm0-9.9h-1.94v-5.95h1.94zm-.33-15.04l.25 1.06.07 1.05v3.02h-1.94v-2.93l-.07-.84-.18-.76-.34-.8 1.8-.75zm-5.55-4.74l1.06.25.94.4-.75 1.8-.8-.33-.76-.18-.84-.07h-2.94v-1.96h3.02zm-8.06 1.87h-5.97v-1.96h5.97zm-9.94 0h-5.97v-1.96h5.97zm-9.95 0h-5.96v-1.96h5.95zm-9.94 0h-5.95v-1.96h5.96zm-9.93 0h-5.97v-1.96h5.97zm-9.94 0h-5.97v-1.96h5.97zm-9.95 0h-5.96v-1.96h5.96zm-9.94 0h-5.97v-1.96h5.97zm-9.94 0h-5.97v-1.96h5.97zm-9.95 0h-5.96v-1.96h5.95zm-9.94 0h-5.95v-1.96h5.96zm-124.35 0h-.92v-1.96h.92zm-4.9 0h-5.96v-1.96h5.95zm-9.94 0h-5.95v-1.96h5.96zm-9.93 0h-5.97v-1.96h5.97zm-9.94 0h-5.97v-1.96h5.97zm-9.95 0h-5.96v-1.96h5.96zm-9.94 0h-5.97v-1.96h5.97zm-9.94 0h-5.97v-1.96h5.97zm-9.95 0h-5.96v-1.96h5.95zm-9.94 0h-5.95v-1.96h5.96zm-9.93 0h-5.97v-1.96h5.97zm-9.94 0h-5.97v-1.96h5.97zm-14.48-2.2l.76.18.84.07h2.94v1.96h-3.02l-1.05-.1-1.06-.24-.94-.4.75-1.8zm233.22 2.2h-.92v-1.96h.92zm-236.7-7.02l.07.84.18.76.34.8-1.8.75-.4-.94-.25-1.06-.07-1.05v-3.14h1.94zm0-7.15h-1.94v-6.18h1.94zm0-10.3h-1.94v-6.17h1.94zm0-10.3h-1.94v-6.16h1.94zm0-10.28h-1.94V-898h1.94zm0-10.3h-1.94v-6.16h1.94zm0-10.28h-1.94v-3.1h1.94z" stroke="#5e5e5e" stroke-width=".05" fill="#5e5e5e"/><path d="M-1279.03-761.5h-1.94v-1.03h1.94z" fill="#5e5e5e"/><path stroke="#5e5e5e" stroke-width=".05" fill="#5e5e5e"/><path d="M-1635.37-916.5h-9.27l4.64-14.26z" fill="#5e5e5e"/><path d="M-1634.02-915.52h-11.96l5.98-18.4zm-9.27-1.95h6.6l-3.3-10.14z" stroke="#5e5e5e" stroke-width=".05" fill="#5e5e5e"/><use xlink:href="#v" transform="matrix(1,0,0,1,-1516.7491319444443,-858.5052083333334) translate(0.005000000000002558 17.22222222222222)"/><path d="M-2120-1085h300v150h-300z" stroke="#333" stroke-width="2" fill="#fff"/><path d="M-2120-1048.74h300M-2120-992h300" stroke="#333" stroke-width="2" fill="none"/><use xlink:href="#w" transform="matrix(1,0,0,1,-2112,-1077) translate(54.253955078124974 16.589501953125)"/><path d="M-1279.03-762.5h-1.94v-2.97h1.94zm0-6.93h-1.94v-5.95h1.94zm0-9.9h-1.94v-5.95h1.94zm0-9.92h-1.94v-5.94h1.94zm0-9.9h-1.94v-5.95h1.94zm0-9.9h-1.94V-815h1.94zm0-9.92h-1.94v-5.94h1.94zm0-9.9h-1.94v-5.95h1.94zm-.33-15.04l.25 1.06.07 1.05v3.02h-1.94v-2.93l-.07-.84-.18-.76-.34-.8 1.8-.75zm-5.55-4.74l1.06.25.94.4-.75 1.8-.8-.33-.76-.18-.84-.07h-2.95v-1.96h3.04zm-8.08 1.87h-5.98v-1.96h5.98zm-9.97 0h-5.98v-1.96h5.98zm-9.97 0h-5.98v-1.96h5.98zm-9.97 0h-5.97v-1.96h5.98zm-9.96 0h-5.98v-1.96h5.98zm-9.97 0h-6v-1.96h6zm-9.97 0h-6v-1.96h6zm-9.97 0h-6v-1.96h6zm-9.97 0h-6v-1.96h6zm-9.97 0h-6v-1.96h6zm-9.98 0h-6v-1.96h6zm-124.07 0h-1.57v-1.96h1.57zm-5.55 0h-6v-1.96h6zm-9.97 0h-6v-1.96h6zm-9.97 0h-6v-1.96h6zm-9.97 0h-6v-1.96h6zm-9.98 0h-6v-1.96h6zm-9.98 0h-5.98v-1.96h5.98zm-9.97 0h-5.98v-1.96h5.97zm-9.97 0h-5.98v-1.96h5.98zm-9.97 0h-5.98v-1.96h5.98zm-9.97 0h-5.98v-1.96h5.98zm-9.97 0h-6v-1.96h6zm-9.98 0h-5.98v-1.96h5.98zm-9.97 0h-5.98v-1.96h5.98zm-9.97 0h-5.98v-1.96h5.98zm-9.97 0h-5.97v-1.96h5.98zm-9.96 0h-5.98v-1.96h5.98zm-9.97 0h-6v-1.96h6zm-9.97 0h-6v-1.96h6zm-9.97 0h-6v-1.96h6zm-9.97 0h-6v-1.96h6zm-9.97 0h-6v-1.96h6zm-9.98 0h-6v-1.96h6zm-9.98 0h-5.98v-1.96h5.98zm-9.97 0h-5.98v-1.96h5.97zm-9.97 0h-5.98v-1.96h5.98zm-9.97 0h-5.98v-1.96h5.98zm-9.97 0h-5.98v-1.96h5.98zm-9.97 0h-6v-1.96h6zm-9.98 0h-5.98v-1.96h5.98zm-122.18 0h-3.45v-1.96h3.44zm-7.44 0h-5.98v-1.96h5.98zm-9.97 0h-5.98v-1.96h5.98zm-9.97 0h-5.98v-1.96h5.98zm-14.5-2.2l.75.18.84.07h2.95v1.96h-3.04l-1.05-.1-1.06-.24-.94-.4.75-1.8zm562.88 2.2h-.6v-1.96h.6zm-566.37-7.02l.07.84.18.76.34.8-1.8.75-.4-.94-.25-1.06-.07-1.05v-3.14h1.94zm0-7.15h-1.94v-6.18h1.94zm0-10.3h-1.94v-6.17h1.94zm0-10.3h-1.94v-6.16h1.94zm0-10.28h-1.94V-898h1.94zm0-10.3h-1.94v-6.16h1.94zm0-10.28h-1.94v-3.1h1.94z" stroke="#5e5e5e" stroke-width=".05" fill="#5e5e5e"/><path d="M-1279.03-761.5h-1.94v-1.03h1.94z" fill="#5e5e5e"/><path stroke="#5e5e5e" stroke-width=".05" fill="#5e5e5e"/><path d="M-1965.37-916.5h-9.27l4.64-14.26z" fill="#5e5e5e"/><path d="M-1964.02-915.52h-11.96l5.98-18.4zm-9.27-1.95h6.6l-3.3-10.14z" stroke="#5e5e5e" stroke-width=".05" fill="#5e5e5e"/><use xlink:href="#v" transform="matrix(1,0,0,1,-1923.6636639893904,-858.5052083333334) translate(0.005000000000002558 17.22222222222222)"/><path d="M-780-760.5h300v141h-300z" stroke="#333" stroke-width="2" fill="#fff"/><path d="M-780-724.25h300M-780-672h300" stroke="#333" stroke-width="2" fill="none"/><use xlink:href="#x" transform="matrix(1,0,0,1,-772,-752.5) translate(88.3469921875 16.589501953125)"/><path d="M-690-382v-111.75a6 6 0 0 1 6-6h48a6 6 0 0 0 6-6V-600" stroke="#5e5e5e" stroke-width="2" fill="none"/><path d="M-689.02-381H-691v-1.03h1.96z" stroke="#5e5e5e" stroke-width=".05" fill="#5e5e5e"/><path d="M-630-615.26l4.63 14.26h-9.26z" stroke="#5e5e5e" stroke-width="2" fill="#5e5e5e"/><use xlink:href="#c" transform="matrix(1,0,0,1,-682,-401.127373046875) translate(0 16.216875)"/><use xlink:href="#c" transform="matrix(1,0,0,1,-649.4440537437492,-618.627373046875) translate(0 16.216875)"/><path d="M260-760h300v140H260z" stroke="#333" stroke-width="2" fill="#fff"/><path d="M260-723.75h300m-300 52h300" stroke="#333" stroke-width="2" fill="none"/><use xlink:href="#y" transform="matrix(1,0,0,1,268,-752) translate(39.05063476562498 16.589501953125)"/><path d="M260-1085h300v150H260z" stroke="#333" stroke-width="2" fill="#fff"/><path d="M260-1048.74h300M260-992h300" stroke="#333" stroke-width="2" fill="none"/><use xlink:href="#z" transform="matrix(1,0,0,1,268,-1077) translate(33.77034179687499 16.589501953125)"/><path d="M-2500-1085h300v150h-300z" stroke="#333" stroke-width="2" fill="#fff"/><path d="M-2500-1048.74h300M-2500-992h300" stroke="#333" stroke-width="2" fill="none"/><use xlink:href="#A" transform="matrix(1,0,0,1,-2492,-1077) translate(59.293120117187485 16.589501953125)"/><path d="M-800-1085h300v150h-300z" stroke="#333" stroke-width="2" fill="#fff"/><path d="M-800-1048.74h300M-800-992h300" stroke="#333" stroke-width="2" fill="none"/><use xlink:href="#B" transform="matrix(1,0,0,1,-792,-1077) translate(49.01861816406249 16.589501953125)"/><path d="M640-759.5h300v140H640z" stroke="#333" stroke-width="2" fill="#fff"/><path d="M640-723.25h300M640-671.5h300" stroke="#333" stroke-width="2" fill="none"/><use xlink:href="#C" transform="matrix(1,0,0,1,648,-751.5) translate(37.46082519531247 16.589501953125)"/><path d="M980-760.5h300v141H980z" stroke="#333" stroke-width="2" fill="#fff"/><path d="M980-724.25h300M980-672h300" stroke="#333" stroke-width="2" fill="none"/><use xlink:href="#D" transform="matrix(1,0,0,1,988,-752.5) translate(31.216020507812473 16.589501953125)"/><path d="M1320-760.5h300v141h-300z" stroke="#333" stroke-width="2" fill="#fff"/><path d="M1320-724.25h300M1320-672h300" stroke="#333" stroke-width="2" fill="none"/><use xlink:href="#E" transform="matrix(1,0,0,1,1328,-752.5) translate(34.30981445312497 16.589501953125)"/><path d="M-420-1085h300v150h-300z" stroke="#333" stroke-width="2" fill="#fff"/><path d="M-420-1048.74h300M-420-992h300" stroke="#333" stroke-width="2" fill="none"/><use xlink:href="#F" transform="matrix(1,0,0,1,-412,-1077) translate(67.40973144531249 16.589501953125)"/><path d="M-80-1085h300v150H-80z" stroke="#333" stroke-width="2" fill="#fff"/><path d="M-80-1048.74h300M-80-992h300" stroke="#333" stroke-width="2" fill="none"/><use xlink:href="#G" transform="matrix(1,0,0,1,-72,-1077) translate(57.61339843749998 16.589501953125)"/><path d="M80-381h300v150H80z" stroke="#333" stroke-width="2" fill="#fff"/><path d="M80-344.75h300M80-288h300" stroke="#333" stroke-width="2" fill="none"/><use xlink:href="#H" transform="matrix(1,0,0,1,88,-373) translate(14.64358398437497 16.589501953125)"/><path d="M230-383v-33a6 6 0 0 1 6-6h268a6 6 0 0 0 6-6v-63.25a6 6 0 0 1 6-6h264.4a6 6 0 0 0 6-6V-617.5" stroke="#5e5e5e" stroke-width="2" fill="none"/><path d="M230.97-382h-1.94v-1.03h1.94zM787.37-617.47h-1.95v-1.03h1.95z" stroke="#5e5e5e" stroke-width=".05" fill="#5e5e5e"/><use xlink:href="#o" transform="matrix(1,0,0,1,753.2539212288531,-618.6273730468746) translate(0 16.216875)"/><path d="M230-383v-33a6 6 0 0 1 6-6h268a6 6 0 0 0 6-6v-63.25a6 6 0 0 1 6-6h608a6 6 0 0 0 6-6V-617.5" stroke="#5e5e5e" stroke-width="2" fill="none"/><path d="M230.97-382h-1.94v-1.03h1.94zM1130.97-617.47h-1.94v-1.03h1.94z" stroke="#5e5e5e" stroke-width=".05" fill="#5e5e5e"/><use xlink:href="#I" transform="matrix(1,0,0,1,1115.191201171875,-618.6273730468744) translate(0 16.216875)"/><path d="M230-383v-33a6 6 0 0 1 6-6h268a6 6 0 0 0 6-6v-63.25a6 6 0 0 1 6-6h948a6 6 0 0 0 6-6V-617.5" stroke="#5e5e5e" stroke-width="2" fill="none"/><path d="M230.97-382h-1.94v-1.03h1.94zM1470.97-617.47h-1.94v-1.03h1.94z" stroke="#5e5e5e" stroke-width=".05" fill="#5e5e5e"/><use xlink:href="#c" transform="matrix(1,0,0,1,237.99999999999997,-402.127373046875) translate(0 16.216875)"/><use xlink:href="#o" transform="matrix(1,0,0,1,1436.8573046875001,-618.6273730468748) translate(0 16.216875)"/><path d="M1230-1085h300v150h-300z" stroke="#333" stroke-width="2" fill="#fff"/><path d="M1230-1048.74h300M1230-992h300" stroke="#333" stroke-width="2" fill="none"/><use xlink:href="#J" transform="matrix(1,0,0,1,1238,-1077) translate(80.7003759765625 16.589501953125)"/><path d="M1470.97-762.5h-1.94v-2.97h1.94zm0-6.93h-1.94v-5.95h1.94zm0-9.9h-1.94v-5.95h1.94zm0-9.92h-1.94v-5.94h1.94zm0-9.9h-1.94v-5.95h1.94zm0-9.9h-1.94V-815h1.94zm0-9.92h-1.94v-5.94h1.94zm0-9.9h-1.94v-5.95h1.94zm-.33-15.04l.25 1.06.07 1.05v3.02h-1.94v-2.93l-.07-.84-.18-.76-.34-.8 1.8-.75zm-4.48-4.5l.94.4-.75 1.8-.34-.14v-2.08zm-85.2-12.55h-1.93v-6.18h1.94zm0-10.3h-1.93v-6.17h1.94zm0-10.3h-1.93v-6.16h1.94zm0-10.28h-1.93V-898h1.94zm0-10.3h-1.93v-6.16h1.94zm0-10.28h-1.93v-3.1h1.94z" stroke="#5e5e5e" stroke-width=".05" fill="#5e5e5e"/><path d="M1470.97-761.5h-1.94v-1.03h1.94z" fill="#5e5e5e"/><path stroke="#5e5e5e" stroke-width=".05" fill="#5e5e5e"/><path d="M1384.63-916.5h-9.27l4.64-14.26z" fill="#5e5e5e"/><path d="M1385.98-915.52h-11.96l5.98-18.4zm-9.27-1.95h6.6l-3.3-10.14z" stroke="#5e5e5e" stroke-width=".05" fill="#5e5e5e"/><use xlink:href="#v" transform="matrix(1,0,0,1,1352.511222721147,-858.5052083333334) translate(0.005000000000002558 17.22222222222222)"/><path d="M-1150-40.5v-88.25a6 6 0 0 0-6-6h-448a6 6 0 0 1-6-6v-69.75" stroke="#5e5e5e" stroke-width="2" fill="none"/><path d="M-1149.03-39.5h-1.94v-1.03h1.94z" stroke="#5e5e5e" stroke-width=".05" fill="#5e5e5e"/><path d="M-1610-225.76l4.63 14.26h-9.27z" stroke="#5e5e5e" stroke-width="2" fill="#5e5e5e"/><use xlink:href="#c" transform="matrix(1,0,0,1,-1629.4440537437492,-229.12737304687514) translate(0 16.216875)"/><path d="M-1150-40.5v-88.25a6 6 0 0 1 6-6h908a6 6 0 0 0 6-6v-70.75" stroke="#5e5e5e" stroke-width="2" fill="none"/><path d="M-1149.03-39.5h-1.94v-1.03h1.94z" stroke="#5e5e5e" stroke-width=".05" fill="#5e5e5e"/><path d="M-230-226.76l4.63 14.26h-9.26z" stroke="#5e5e5e" stroke-width="2" fill="#5e5e5e"/><use xlink:href="#c" transform="matrix(1,0,0,1,-249.44405374374924,-230.12737304687525) translate(0 16.216875)"/><path d="M-1610-382v-112.25a6 6 0 0 0-6-6h-408a6 6 0 0 1-6-6V-601" stroke="#5e5e5e" stroke-width="2" fill="none"/><path d="M-1609.03-381h-1.94v-1.03h1.94z" stroke="#5e5e5e" stroke-width=".05" fill="#5e5e5e"/><path d="M-2030-616.26l4.63 14.26h-9.27z" stroke="#5e5e5e" stroke-width="2" fill="#5e5e5e"/><use xlink:href="#o" transform="matrix(1,0,0,1,-2067.777950228124,-619.6273730468749) translate(0 16.216875)"/><path d="M-1610-382v-112.5a6 6 0 0 0-6-6h-728a6 6 0 0 1-6-6v-95" stroke="#5e5e5e" stroke-width="2" fill="none"/><path d="M-1609.03-381h-1.94v-1.03h1.94z" stroke="#5e5e5e" stroke-width=".05" fill="#5e5e5e"/><path d="M-2350-616.76l4.64 14.26h-9.28z" stroke="#5e5e5e" stroke-width="2" fill="#5e5e5e"/><use xlink:href="#c" transform="matrix(1,0,0,1,-1601.9999999999998,-401.127373046875) translate(0 16.216875)"/><use xlink:href="#c" transform="matrix(1,0,0,1,-2369.444053743749,-620.127373046875) translate(0 16.216875)"/><path d="M-2349.03-762h-1.94v-3.07h1.94zm0-7.16h-1.94v-6.14h1.94zm0-10.24h-1.94v-6.14h1.94zm0-10.23h-1.94v-6.14h1.94zm0-10.23h-1.94V-806h1.94zm0-10.24h-1.94v-6.14h1.94zm0-10.23h-1.94v-6.14h1.94zm0-10.23h-1.94v-6.14h1.94zm0-10.24h-1.94v-6.14h1.94zm0-10.23h-1.94v-.42h1.94zm0-21.93h-1.94v-4.67h1.94zm0-8.77h-1.94v-6.14h1.94zm0-10.23h-1.94v-6.14h1.94zm0-10.24h-1.94v-6.13h1.94zm0-10.23h-1.94v-3.07h1.94z" stroke="#5e5e5e" stroke-width=".05" fill="#5e5e5e"/><path d="M-2349.03-761h-1.94v-1.03h1.94z" fill="#5e5e5e"/><path stroke="#5e5e5e" stroke-width=".05" fill="#5e5e5e"/><path d="M-2345.36-916.5h-9.28l4.64-14.26z" fill="#5e5e5e"/><path d="M-2344.02-915.52h-11.96l5.98-18.4zm-9.27-1.95h6.6l-3.3-10.14z" stroke="#5e5e5e" stroke-width=".05" fill="#5e5e5e"/><use xlink:href="#v" transform="matrix(1,0,0,1,-2406.7491319444443,-872.9575467948719) translate(0.005000000000002558 17.22222222222222)"/><path d="M-269.02-762h-1.96v-3.12h1.96zm0-7.28h-1.96v-6.24h1.96zm0-10.4h-1.96v-6.24h1.96zm0-10.4h-1.96v-6.24h1.96zm0-10.4h-1.96v-6.24h1.96zm117.33-18.54h-5.95V-821h5.97zm9.95 0h-5.96V-821h5.95zm9.94 0h-5.97V-821h5.96zm9.93 0h-5.96V-821h5.96zm9.94 0h-5.96V-821h5.97zm9.94 0h-5.95V-821h5.96zm9.95 0H-98V-821h5.95zm9.94 0h-5.97V-821h5.96zm9.93 0h-5.96V-821h5.96zm9.94 0h-5.96V-821h5.97zm9.94 0h-5.96V-821h5.97zm9.95 0h-5.96l-.02-1.96h5.97zm9.94 0h-5.98V-821h5.97zm9.93 0h-5.97V-821h5.97zm9.94 0h-5.97V-821h5.97zm9.94 0h-5.96V-821h5.97zm9.95 0H1.38V-821h5.96zm9.94 0H11.3V-821h5.96zm9.92 0h-5.96V-821h5.96zm9.94 0H31.2V-821h5.96zm9.94 0h-5.96V-821h5.96zm9.94 0h-5.96V-821h5.96zm10.06-.73l-.94.4-1.07.24-1.06.08h-3.02V-821h2.94l.83-.06.75-.18.8-.33zm-228.72.73h-2.6V-821h2.6zm232.6-6.94l-.1 1.05-.24 1.06-.4.94-1.8-.75.34-.8.18-.76.07-.84v-2.94h1.94zm0-7h-1.95V-837h1.94zm0-25.54h-1.95v-.32h1.94zm0-4.3h-1.95v-5.96h1.94zm0-9.94h-1.95v-5.96h1.94zm0-9.94h-1.95v-5.97h1.94zm0-9.95h-1.95v-5.96h1.94zm0-9.94h-1.95v-5.97h1.94zm0-9.94h-1.95v-3h1.94z" stroke="#5e5e5e" stroke-width=".05" fill="#5e5e5e"/><path d="M-269.02-761h-1.96v-1.03h1.96z" fill="#5e5e5e"/><path stroke="#5e5e5e" stroke-width=".05" fill="#5e5e5e"/><path d="M74.64-916.5h-9.28L70-930.76z" fill="#5e5e5e"/><path d="M75.98-915.52H64.02l5.98-18.4zm-9.27-1.95h6.6L70-927.6z" stroke="#5e5e5e" stroke-width=".05" fill="#5e5e5e"/><use xlink:href="#v" transform="matrix(1,0,0,1,-277.7084012521657,-830.7552083333334) translate(0.005000000000002558 17.22222222222222)"/><path d="M70.97-762.5h-1.94v-3.06h1.94zm0-7.14h-1.94v-6.12h1.94zm0-10.2h-1.94v-6.12h1.94zm0-10.2h-1.94v-6.12h1.94zm0-10.2h-1.94v-6.12h1.94zm0-10.2h-1.94v-6.12h1.94zm0-10.2h-1.94v-6.12h1.94zm0-10.2h-1.94v-6.12h1.94zm0-30.6h-1.94v-6.12h1.94zm0-10.2h-1.94v-6.12h1.94zm0-10.2h-1.94v-6.12h1.94zm0-10.2h-1.94v-6.12h1.94zm0-10.2h-1.94v-6.12h1.94zm0-10.2h-1.94v-3.06h1.94z" stroke="#5e5e5e" stroke-width=".05" fill="#5e5e5e"/><path d="M70.97-761.5h-1.94v-1.03h1.94z" fill="#5e5e5e"/><path stroke="#5e5e5e" stroke-width=".05" fill="#5e5e5e"/><path d="M74.64-916.5h-9.28L70-930.76z" fill="#5e5e5e"/><path d="M75.98-915.52H64.02l5.98-18.4zm-9.27-1.95h6.6L70-927.6z" stroke="#5e5e5e" stroke-width=".05" fill="#5e5e5e"/><use xlink:href="#v" transform="matrix(1,0,0,1,13.250868055555543,-858.5052083333334) translate(0.005000000000002558 17.22222222222222)"/><path d="M410.98-762h-1.96v-3.07h1.96zm0-7.16h-1.96v-6.14h1.96zm0-10.24h-1.96v-6.14h1.96zm0-10.23h-1.96v-6.14h1.96zm0-10.23h-1.96V-806h1.96zm0-10.24h-1.96v-6.14h1.96zm0-10.23h-1.96v-6.14h1.96zm0-10.23h-1.96v-6.14h1.96zm0-30.7h-1.96v-6.14h1.96zm0-10.24h-1.96v-6.13h1.96zm0-10.23h-1.96v-6.14h1.96zm0-10.23h-1.96v-6.14h1.96zm0-10.24h-1.96v-6.13h1.96zm0-10.23h-1.96v-3.07h1.96z" stroke="#5e5e5e" stroke-width=".05" fill="#5e5e5e"/><path d="M410.98-761h-1.96v-1.03h1.96z" fill="#5e5e5e"/><path stroke="#5e5e5e" stroke-width=".05" fill="#5e5e5e"/><path d="M414.63-916.5h-9.26l4.63-14.26z" fill="#5e5e5e"/><path d="M415.98-915.52h-11.96l5.98-18.4zm-9.27-1.95h6.6L410-927.6z" stroke="#5e5e5e" stroke-width=".05" fill="#5e5e5e"/><use xlink:href="#v" transform="matrix(1,0,0,1,353.25086805555554,-858.2552083333334) translate(0.005000000000002558 17.22222222222222)"/><path d="M-269.02-762h-1.96v-3.07h1.96zm0-7.16h-1.96v-6.14h1.96zm0-10.24h-1.96v-6.14h1.96zm0-10.23h-1.96v-6.14h1.96zm0-10.23h-1.96V-806h1.96zm0-30.9h-1.96v-5.94h1.96zm0-10.04h-1.96v-6.14h1.96zm0-10.23h-1.96v-6.14h1.96zm0-10.23h-1.96v-6.14h1.96zm0-10.24h-1.96v-2.73h1.96zm0-24.24h-1.96v-2.36h1.96zm0-6.46h-1.96v-6.13h1.96zm0-10.23h-1.96v-3.07h1.96z" stroke="#5e5e5e" stroke-width=".05" fill="#5e5e5e"/><path d="M-269.02-761h-1.96v-1.03h1.96z" fill="#5e5e5e"/><path stroke="#5e5e5e" stroke-width=".05" fill="#5e5e5e"/><path d="M-265.37-916.5h-9.26l4.63-14.26z" fill="#5e5e5e"/><path d="M-264.02-915.52h-11.96l5.98-18.4zm-9.27-1.95h6.6l-3.3-10.14z" stroke="#5e5e5e" stroke-width=".05" fill="#5e5e5e"/><use xlink:href="#v" transform="matrix(1,0,0,1,-326.74913194444446,-895.7385416666674) translate(0.005000000000002558 17.22222222222222)"/><path d="M-629.02-762.5H-631v-2.97h1.96zm0-6.93H-631v-5.95h1.96zm0-9.9H-631v-5.95h1.96zm0-9.92H-631v-5.94h1.96zm0-9.9H-631v-5.95h1.96zm0-9.9H-631V-815h1.96zm0-9.92H-631v-5.94h1.96zm0-9.9H-631v-5.95h1.96zm-20-32.08H-651v-6.18h1.96zm0-10.3H-651v-6.17h1.96zm0-10.3H-651v-6.16h1.96zm0-10.28H-651V-898h1.96zm0-10.3H-651v-6.16h1.96zm0-10.28H-651v-3.1h1.96z" stroke="#5e5e5e" stroke-width=".05" fill="#5e5e5e"/><path d="M-629.02-761.5H-631v-1.03h1.96z" fill="#5e5e5e"/><path stroke="#5e5e5e" stroke-width=".05" fill="#5e5e5e"/><path d="M-645.37-916.5h-9.26l4.63-14.26z" fill="#5e5e5e"/><path d="M-644.02-915.52h-11.96l5.98-18.4zm-9.27-1.95h6.6l-3.3-10.14z" stroke="#5e5e5e" stroke-width=".05" fill="#5e5e5e"/><use xlink:href="#v" transform="matrix(1,0,0,1,-696.7491319444445,-858.5052083333334) translate(0.005000000000002558 17.22222222222222)"/><path d="M-230-383v-111.5a6 6 0 0 0-6-6h-28a6 6 0 0 1-6-6v-94" stroke="#5e5e5e" stroke-width="2" fill="none"/><path d="M-229.03-382h-1.94v-1.03h1.94z" stroke="#5e5e5e" stroke-width=".05" fill="#5e5e5e"/><path d="M-270-615.76l4.63 14.26h-9.26z" stroke="#5e5e5e" stroke-width="2" fill="#5e5e5e"/><use xlink:href="#c" transform="matrix(1,0,0,1,-222,-402.127373046875) translate(0 16.216875)"/><use xlink:href="#o" transform="matrix(1,0,0,1,-307.7779502281242,-619.127373046875) translate(0 16.216875)"/><path d="M-230-383v-111.25a6 6 0 0 1 6-6H64a6 6 0 0 0 6-6V-600" stroke="#5e5e5e" stroke-width="2" fill="none"/><path d="M-229.03-382h-1.94v-1.03h1.94z" stroke="#5e5e5e" stroke-width=".05" fill="#5e5e5e"/><path d="M70-615.26L74.64-601h-9.28z" stroke="#5e5e5e" stroke-width="2" fill="#5e5e5e"/><use xlink:href="#o" transform="matrix(1,0,0,1,32.22204977187579,-618.627373046875) translate(0 16.216875)"/><path d="M-230-383v-111.75a6 6 0 0 1 6-6h628a6 6 0 0 0 6-6v-93.75" stroke="#5e5e5e" stroke-width="2" fill="none"/><path d="M-229.03-382h-1.94v-1.03h1.94z" stroke="#5e5e5e" stroke-width=".05" fill="#5e5e5e"/><path d="M410-615.76l4.63 14.26h-9.26z" stroke="#5e5e5e" stroke-width="2" fill="#5e5e5e"/><g><use xlink:href="#c" transform="matrix(1,0,0,1,390.5559462562508,-619.1273730468748) translate(0 16.216875)"/></g><defs><path fill="#333" d="M786 20C389 20 94-260 94-744c0-487 299-766 692-766 339 0 597 194 641 529h-309c-28-162-156-258-326-258-233 0-388 179-388 495 0 323 157 493 387 493 170 0 298-97 328-259h309c-34 277-266 530-642 530" id="K"/><path fill="#333" d="M628 22C291 22 81-210 81-554c0-346 210-578 547-578 336 0 547 232 547 578 0 344-211 576-547 576zm0-236c160 0 242-146 242-341 0-197-82-341-242-341S387-753 387-555c0 195 81 341 241 341" id="L"/><path fill="#333" d="M428-647V0H128v-1118h283l4 231c63-156 176-245 348-245 232 0 384 159 384 421V0H847v-659c0-139-76-222-202-222-128 0-217 86-217 234" id="M"/><path fill="#333" d="M683-1118v229H474v562c0 71 29 104 102 104 23 0 73-7 95-13l43 225C647 9 580 16 520 16 296 16 174-96 174-301v-588H20v-229h154v-266h300v266h209" id="N"/><path fill="#333" d="M128 0v-1118h290v195h12c54-169 184-238 367-200v268c-27-8-86-15-130-15-138 0-239 95-239 234V0H128" id="O"/><path fill="#333" d="M428-1490V0H128v-1490h300" id="P"/><path fill="#333" d="M440 22C227 22 68-92 68-313c0-250 202-322 422-343 195-21 271-24 271-105 0-95-63-149-175-149-116 0-187 57-211 129l-275-46c57-194 237-305 487-305 240 0 474 108 474 379V0H777v-155h-10C713-51 605 22 440 22zm85-211c140 0 238-93 238-211v-121c-37 26-156 42-222 51-111 16-185 59-185 149 0 87 70 132 169 132" id="Q"/><path fill="#333" d="M537 19C279 19 81-185 81-557c0-382 206-575 454-575 190 0 278 113 318 202h10v-560h300V0H868v-179h-15C812-89 719 19 537 19zm92-241c153 0 240-134 240-336 0-203-86-334-240-334-158 0-240 138-240 334 0 197 84 336 240 336" id="R"/><path fill="#333" d="M135 0v-1490h581c339 0 533 210 533 503 0 295-197 500-540 500H440V0H135zm305-733h220c186 0 274-104 274-254s-88-251-275-251H440v505" id="S"/><path fill="#333" d="M633 22C291 22 81-200 81-553c0-345 210-579 537-579 292 0 525 185 525 567v84H378c7 183 109 277 260 277 105 0 184-46 216-132l272 51C1071-99 893 22 633 22zM380-669h474c-15-146-94-237-233-237-143 0-229 99-241 237" id="T"/><path fill="#333" d="M572 22C302 22 117-98 78-306l279-48c29 105 101 156 224 156 114 0 185-48 185-115 0-118-228-130-337-155-215-49-322-150-322-317 0-215 187-347 470-347 265 0 424 116 466 298l-266 47c-24-76-87-130-196-130-98 0-174 46-174 113 0 56 38 95 144 117l201 40c216 44 320 143 320 302 0 220-207 367-500 367" id="U"/><path fill="#333" d="M628 22C291 22 81-210 81-554c0-346 210-578 547-578 265 0 455 142 497 372l-279 52c-25-116-99-188-215-188-160 0-244 139-244 341 0 200 84 341 244 341 116 0 193-74 217-195l279 51C1085-123 896 22 628 22" id="V"/><path fill="#333" d="M128 0v-1118h300V0H128zm150-1264c-91 0-165-68-165-154 0-85 74-154 165-154 90 0 165 69 165 154 0 86-75 154-165 154" id="W"/><g id="a"><use transform="matrix(0.008173828125000001,0,0,0.008173828125000001,0,0)" xlink:href="#K"/><use transform="matrix(0.008173828125000001,0,0,0.008173828125000001,12.383349609375001,0)" xlink:href="#L"/><use transform="matrix(0.008173828125000001,0,0,0.008173828125000001,22.649677734375004,0)" xlink:href="#M"/><use transform="matrix(0.008173828125000001,0,0,0.008173828125000001,33.071308593750004,0)" xlink:href="#N"/><use transform="matrix(0.008173828125000001,0,0,0.008173828125000001,39.201679687500004,0)" xlink:href="#O"/><use transform="matrix(0.008173828125000001,0,0,0.008173828125000001,45.609960937500006,0)" xlink:href="#L"/><use transform="matrix(0.008173828125000001,0,0,0.008173828125000001,55.87628906250001,0)" xlink:href="#P"/><use transform="matrix(0.008173828125000001,0,0,0.008173828125000001,60.412763671875005,0)" xlink:href="#Q"/><use transform="matrix(0.008173828125000001,0,0,0.008173828125000001,70.1314453125,0)" xlink:href="#R"/><use transform="matrix(0.008173828125000001,0,0,0.008173828125000001,80.683857421875,0)" xlink:href="#L"/><use transform="matrix(0.008173828125000001,0,0,0.008173828125000001,90.950185546875,0)" xlink:href="#O"/><use transform="matrix(0.008173828125000001,0,0,0.008173828125000001,98.028720703125,0)" xlink:href="#S"/><use transform="matrix(0.008173828125000001,0,0,0.008173828125000001,108.87539062500001,0)" xlink:href="#O"/><use transform="matrix(0.008173828125000001,0,0,0.008173828125000001,115.28367187500001,0)" xlink:href="#T"/><use transform="matrix(0.008173828125000001,0,0,0.008173828125000001,125.2557421875,0)" xlink:href="#U"/><use transform="matrix(0.008173828125000001,0,0,0.008173828125000001,134.63112304687502,0)" xlink:href="#T"/><use transform="matrix(0.008173828125000001,0,0,0.008173828125000001,144.603193359375,0)" xlink:href="#M"/><use transform="matrix(0.008173828125000001,0,0,0.008173828125000001,155.02482421875,0)" xlink:href="#N"/><use transform="matrix(0.008173828125000001,0,0,0.008173828125000001,161.23693359375002,0)" xlink:href="#Q"/><use transform="matrix(0.008173828125000001,0,0,0.008173828125000001,170.95561523437502,0)" xlink:href="#V"/><use transform="matrix(0.008173828125000001,0,0,0.008173828125000001,180.80507812500002,0)" xlink:href="#W"/><use transform="matrix(0.008173828125000001,0,0,0.008173828125000001,185.34155273437503,0)" xlink:href="#L"/><use transform="matrix(0.008173828125000001,0,0,0.008173828125000001,195.60788085937503,0)" xlink:href="#M"/></g><path fill="#333" d="M135 0v-1490h468l242 684c30 94 76 293 111 455 34-161 80-360 110-455l238-684h470V0h-307c0-447-3-765 11-1227-122 503-246 788-395 1227H826C676-435 552-717 427-1215c15 453 11 775 11 1215H135" id="X"/><path fill="#333" d="M571 0L49-1490h339c138 427 271 775 384 1244 111-471 237-815 371-1244h337L970 0H571" id="Y"/><path fill="#333" d="M361 0L31-1118h315c68 295 127 523 188 845 63-317 128-551 199-845h276c71 296 131 525 196 846 57-321 119-552 186-846h319L1378 0h-305c-73-261-148-486-204-771C813-484 740-261 666 0H361" id="Z"/><g id="b"><use transform="matrix(0.008173828125000001,0,0,0.008173828125000001,0,0)" xlink:href="#X"/><use transform="matrix(0.008173828125000001,0,0,0.008173828125000001,15.595664062500003,0)" xlink:href="#Q"/><use transform="matrix(0.008173828125000001,0,0,0.008173828125000001,25.314345703125003,0)" xlink:href="#W"/><use transform="matrix(0.008173828125000001,0,0,0.008173828125000001,29.850820312500005,0)" xlink:href="#M"/><use transform="matrix(0.008173828125000001,0,0,0.008173828125000001,39.42237304687501,0)" xlink:href="#Y"/><use transform="matrix(0.008173828125000001,0,0,0.008173828125000001,51.92015625000001,0)" xlink:href="#W"/><use transform="matrix(0.008173828125000001,0,0,0.008173828125000001,56.45663085937501,0)" xlink:href="#T"/><use transform="matrix(0.008173828125000001,0,0,0.008173828125000001,66.199833984375,0)" xlink:href="#Z"/><use transform="matrix(0.008173828125000001,0,0,0.008173828125000001,80.43046875,0)" xlink:href="#K"/><use transform="matrix(0.008173828125000001,0,0,0.008173828125000001,92.813818359375,0)" xlink:href="#L"/><use transform="matrix(0.008173828125000001,0,0,0.008173828125000001,103.080146484375,0)" xlink:href="#M"/><use transform="matrix(0.008173828125000001,0,0,0.008173828125000001,113.50177734375,0)" xlink:href="#N"/><use transform="matrix(0.008173828125000001,0,0,0.008173828125000001,119.63214843750002,0)" xlink:href="#O"/><use transform="matrix(0.008173828125000001,0,0,0.008173828125000001,126.04042968750001,0)" xlink:href="#L"/><use transform="matrix(0.008173828125000001,0,0,0.008173828125000001,136.3067578125,0)" xlink:href="#P"/><use transform="matrix(0.008173828125000001,0,0,0.008173828125000001,140.843232421875,0)" xlink:href="#P"/><use transform="matrix(0.008173828125000001,0,0,0.008173828125000001,145.37970703125,0)" xlink:href="#T"/><use transform="matrix(0.008173828125000001,0,0,0.008173828125000001,155.35177734375,0)" xlink:href="#O"/></g><path d="M653-1490V0H466v-1314h-10L96-1047v-204l324-239h233" id="aa"/><use transform="matrix(0.008173828125000001,0,0,0.008173828125000001,0,0)" xlink:href="#aa" id="c"/><path fill="#333" d="M567 20C257 20 68-148 68-448v-87h305v92c0 143 75 217 194 217s193-74 193-218v-1046h302v1041c0 301-188 469-495 469" id="ab"/><path fill="#333" d="M513 14c-232 0-385-159-385-421v-711h300v659c0 139 76 222 202 222 127 0 217-86 217-234v-647h301V0H864l-4-232C797-74 683 14 513 14" id="ac"/><path fill="#333" d="M625 442c-280 0-454-114-503-274l258-72c28 63 97 128 243 128 153 0 246-69 246-216v-206h-23C805-108 717-16 536-16 284-16 81-191 81-561c0-378 208-571 456-571 188 0 280 113 321 202h13v-188h295V-9c0 303-226 451-541 451zm5-686c153 0 240-119 240-319 0-198-86-329-240-329-158 0-241 137-241 329 0 195 85 319 241 319" id="ad"/><g id="d"><use transform="matrix(0.008173828125000001,0,0,0.008173828125000001,0,0)" xlink:href="#K"/><use transform="matrix(0.008173828125000001,0,0,0.008173828125000001,12.383349609375001,0)" xlink:href="#L"/><use transform="matrix(0.008173828125000001,0,0,0.008173828125000001,22.649677734375004,0)" xlink:href="#M"/><use transform="matrix(0.008173828125000001,0,0,0.008173828125000001,33.071308593750004,0)" xlink:href="#N"/><use transform="matrix(0.008173828125000001,0,0,0.008173828125000001,39.201679687500004,0)" xlink:href="#O"/><use transform="matrix(0.008173828125000001,0,0,0.008173828125000001,45.609960937500006,0)" xlink:href="#L"/><use transform="matrix(0.008173828125000001,0,0,0.008173828125000001,55.87628906250001,0)" xlink:href="#P"/><use transform="matrix(0.008173828125000001,0,0,0.008173828125000001,60.412763671875005,0)" xlink:href="#Q"/><use transform="matrix(0.008173828125000001,0,0,0.008173828125000001,70.1314453125,0)" xlink:href="#R"/><use transform="matrix(0.008173828125000001,0,0,0.008173828125000001,80.683857421875,0)" xlink:href="#L"/><use transform="matrix(0.008173828125000001,0,0,0.008173828125000001,90.950185546875,0)" xlink:href="#O"/><use transform="matrix(0.008173828125000001,0,0,0.008173828125000001,96.81899414062501,0)" xlink:href="#ab"/><use transform="matrix(0.008173828125000001,0,0,0.008173828125000001,106.60306640625001,0)" xlink:href="#ac"/><use transform="matrix(0.008173828125000001,0,0,0.008173828125000001,117.02469726562501,0)" xlink:href="#ad"/><use transform="matrix(0.008173828125000001,0,0,0.008173828125000001,127.601630859375,0)" xlink:href="#Q"/><use transform="matrix(0.008173828125000001,0,0,0.008173828125000001,137.3203125,0)" xlink:href="#R"/><use transform="matrix(0.008173828125000001,0,0,0.008173828125000001,147.872724609375,0)" xlink:href="#L"/><use transform="matrix(0.008173828125000001,0,0,0.008173828125000001,158.139052734375,0)" xlink:href="#O"/><use transform="matrix(0.008173828125000001,0,0,0.008173828125000001,164.547333984375,0)" xlink:href="#T"/><use transform="matrix(0.008173828125000001,0,0,0.008173828125000001,174.519404296875,0)" xlink:href="#U"/><use transform="matrix(0.008173828125000001,0,0,0.008173828125000001,183.134619140625,0)" xlink:href="#Y"/><use transform="matrix(0.008173828125000001,0,0,0.008173828125000001,195.63240234375002,0)" xlink:href="#W"/><use transform="matrix(0.008173828125000001,0,0,0.008173828125000001,200.16887695312502,0)" xlink:href="#T"/><use transform="matrix(0.008173828125000001,0,0,0.008173828125000001,209.91208007812503,0)" xlink:href="#Z"/></g><g id="g"><use transform="matrix(0.008173828125000001,0,0,0.008173828125000001,0,0)" xlink:href="#K"/><use transform="matrix(0.008173828125000001,0,0,0.008173828125000001,12.383349609375001,0)" xlink:href="#L"/><use transform="matrix(0.008173828125000001,0,0,0.008173828125000001,22.649677734375004,0)" xlink:href="#M"/><use transform="matrix(0.008173828125000001,0,0,0.008173828125000001,33.071308593750004,0)" xlink:href="#N"/><use transform="matrix(0.008173828125000001,0,0,0.008173828125000001,39.201679687500004,0)" xlink:href="#O"/><use transform="matrix(0.008173828125000001,0,0,0.008173828125000001,45.609960937500006,0)" xlink:href="#L"/><use transform="matrix(0.008173828125000001,0,0,0.008173828125000001,55.87628906250001,0)" xlink:href="#P"/><use transform="matrix(0.008173828125000001,0,0,0.008173828125000001,60.412763671875005,0)" xlink:href="#Q"/><use transform="matrix(0.008173828125000001,0,0,0.008173828125000001,70.1314453125,0)" xlink:href="#R"/><use transform="matrix(0.008173828125000001,0,0,0.008173828125000001,80.683857421875,0)" xlink:href="#L"/><use transform="matrix(0.008173828125000001,0,0,0.008173828125000001,90.950185546875,0)" xlink:href="#O"/><use transform="matrix(0.008173828125000001,0,0,0.008173828125000001,98.028720703125,0)" xlink:href="#S"/><use transform="matrix(0.008173828125000001,0,0,0.008173828125000001,108.66287109375001,0)" xlink:href="#Q"/><use transform="matrix(0.008173828125000001,0,0,0.008173828125000001,118.38155273437502,0)" xlink:href="#O"/><use transform="matrix(0.008173828125000001,0,0,0.008173828125000001,125.52547851562503,0)" xlink:href="#N"/><use transform="matrix(0.008173828125000001,0,0,0.008173828125000001,131.65584960937503,0)" xlink:href="#W"/><use transform="matrix(0.008173828125000001,0,0,0.008173828125000001,136.19232421875,0)" xlink:href="#R"/><use transform="matrix(0.008173828125000001,0,0,0.008173828125000001,146.74473632812504,0)" xlink:href="#Q"/><use transform="matrix(0.008173828125000001,0,0,0.008173828125000001,155.61333984375003,0)" xlink:href="#Y"/><use transform="matrix(0.008173828125000001,0,0,0.008173828125000001,168.11112304687504,0)" xlink:href="#W"/><use transform="matrix(0.008173828125000001,0,0,0.008173828125000001,172.64759765625004,0)" xlink:href="#T"/><use transform="matrix(0.008173828125000001,0,0,0.008173828125000001,182.39080078125005,0)" xlink:href="#Z"/></g><path fill="#333" d="M128 0v-1118h278l12 217c60-163 185-234 319-234 143 0 236 81 288 251 63-172 205-251 359-251 205 0 357 138 357 381V0h-301v-697c0-126-76-187-177-187-114 0-184 79-184 196V0H789v-705c0-109-72-179-174-179-106 0-187 74-187 208V0H128" id="ae"/><path fill="#333" d="M659 0H135v-1490h529c448 0 721 280 721 744 0 466-273 746-726 746zM440-263h204c287 0 437-148 437-483 0-333-150-481-435-481H440v964" id="af"/><g id="h"><use transform="matrix(0.008173828125000001,0,0,0.008173828125000001,0,0)" xlink:href="#K"/><use transform="matrix(0.008173828125000001,0,0,0.008173828125000001,12.383349609375001,0)" xlink:href="#ac"/><use transform="matrix(0.008173828125000001,0,0,0.008173828125000001,22.804980468750003,0)" xlink:href="#U"/><use transform="matrix(0.008173828125000001,0,0,0.008173828125000001,32.180361328125,0)" xlink:href="#N"/><use transform="matrix(0.008173828125000001,0,0,0.008173828125000001,38.14725585937501,0)" xlink:href="#L"/><use transform="matrix(0.008173828125000001,0,0,0.008173828125000001,48.413583984374995,0)" xlink:href="#ae"/><use transform="matrix(0.008173828125000001,0,0,0.008173828125000001,63.69046875000001,0)" xlink:href="#af"/><use transform="matrix(0.008173828125000001,0,0,0.008173828125000001,75.779560546875,0)" xlink:href="#W"/><use transform="matrix(0.008173828125000001,0,0,0.008173828125000001,80.31603515625001,0)" xlink:href="#Q"/><use transform="matrix(0.008173828125000001,0,0,0.008173828125000001,90.03471679687502,0)" xlink:href="#P"/><use transform="matrix(0.008173828125000001,0,0,0.008173828125000001,94.57119140625002,0)" xlink:href="#L"/><use transform="matrix(0.008173828125000001,0,0,0.008173828125000001,104.83751953125002,0)" xlink:href="#ad"/></g><path fill="#333" d="M795 20C377 20 94-272 94-743c0-483 302-767 694-767 335 0 593 206 635 500h-310c-42-142-154-229-320-229-230 0-389 177-389 493s154 495 393 495c212 0 340-120 345-311H818v-232h620v186c0 391-269 628-643 628" id="ag"/><g id="i"><use transform="matrix(0.008173828125000001,0,0,0.008173828125000001,0,0)" xlink:href="#ag"/><use transform="matrix(0.008173828125000001,0,0,0.008173828125000001,12.563173828125002,0)" xlink:href="#T"/><use transform="matrix(0.008173828125000001,0,0,0.008173828125000001,22.535244140625004,0)" xlink:href="#U"/><use transform="matrix(0.008173828125000001,0,0,0.008173828125000001,31.910625000000003,0)" xlink:href="#N"/><use transform="matrix(0.008173828125000001,0,0,0.008173828125000001,38.04099609375,0)" xlink:href="#W"/><use transform="matrix(0.008173828125000001,0,0,0.008173828125000001,42.577470703125,0)" xlink:href="#L"/><use transform="matrix(0.008173828125000001,0,0,0.008173828125000001,52.843798828125,0)" xlink:href="#M"/><use transform="matrix(0.008173828125000001,0,0,0.008173828125000001,63.2654296875,0)" xlink:href="#ab"/><use transform="matrix(0.008173828125000001,0,0,0.008173828125000001,73.049501953125,0)" xlink:href="#ac"/><use transform="matrix(0.008173828125000001,0,0,0.008173828125000001,83.47113281249999,0)" xlink:href="#ad"/><use transform="matrix(0.008173828125000001,0,0,0.008173828125000001,94.04806640625,0)" xlink:href="#Q"/><use transform="matrix(0.008173828125000001,0,0,0.008173828125000001,103.766748046875,0)" xlink:href="#R"/><use transform="matrix(0.008173828125000001,0,0,0.008173828125000001,114.31916015624999,0)" xlink:href="#L"/><use transform="matrix(0.008173828125000001,0,0,0.008173828125000001,124.58548828125,0)" xlink:href="#O"/><use transform="matrix(0.008173828125000001,0,0,0.008173828125000001,130.99376953125,0)" xlink:href="#T"/><use transform="matrix(0.008173828125000001,0,0,0.008173828125000001,140.96583984375,0)" xlink:href="#U"/><use transform="matrix(0.008173828125000001,0,0,0.008173828125000001,149.5810546875,0)" xlink:href="#Y"/><use transform="matrix(0.008173828125000001,0,0,0.008173828125000001,162.078837890625,0)" xlink:href="#W"/><use transform="matrix(0.008173828125000001,0,0,0.008173828125000001,166.61531250000002,0)" xlink:href="#T"/><use transform="matrix(0.008173828125000001,0,0,0.008173828125000001,176.35851562500002,0)" xlink:href="#Z"/></g><g id="j"><use transform="matrix(0.008173828125000001,0,0,0.008173828125000001,0,0)" xlink:href="#K"/><use transform="matrix(0.008173828125000001,0,0,0.008173828125000001,12.383349609375001,0)" xlink:href="#L"/><use transform="matrix(0.008173828125000001,0,0,0.008173828125000001,22.649677734375004,0)" xlink:href="#M"/><use transform="matrix(0.008173828125000001,0,0,0.008173828125000001,33.071308593750004,0)" xlink:href="#N"/><use transform="matrix(0.008173828125000001,0,0,0.008173828125000001,39.201679687500004,0)" xlink:href="#O"/><use transform="matrix(0.008173828125000001,0,0,0.008173828125000001,45.609960937500006,0)" xlink:href="#L"/><use transform="matrix(0.008173828125000001,0,0,0.008173828125000001,55.87628906250001,0)" xlink:href="#P"/><use transform="matrix(0.008173828125000001,0,0,0.008173828125000001,60.412763671875005,0)" xlink:href="#Q"/><use transform="matrix(0.008173828125000001,0,0,0.008173828125000001,70.1314453125,0)" xlink:href="#R"/><use transform="matrix(0.008173828125000001,0,0,0.008173828125000001,80.683857421875,0)" xlink:href="#L"/><use transform="matrix(0.008173828125000001,0,0,0.008173828125000001,90.950185546875,0)" xlink:href="#O"/><use transform="matrix(0.008173828125000001,0,0,0.008173828125000001,98.028720703125,0)" xlink:href="#af"/><use transform="matrix(0.008173828125000001,0,0,0.008173828125000001,110.1178125,0)" xlink:href="#W"/><use transform="matrix(0.008173828125000001,0,0,0.008173828125000001,114.654287109375,0)" xlink:href="#V"/><use transform="matrix(0.008173828125000001,0,0,0.008173828125000001,124.50375000000001,0)" xlink:href="#V"/><use transform="matrix(0.008173828125000001,0,0,0.008173828125000001,134.353212890625,0)" xlink:href="#W"/><use transform="matrix(0.008173828125000001,0,0,0.008173828125000001,138.8896875,0)" xlink:href="#L"/><use transform="matrix(0.008173828125000001,0,0,0.008173828125000001,149.156015625,0)" xlink:href="#M"/><use transform="matrix(0.008173828125000001,0,0,0.008173828125000001,159.577646484375,0)" xlink:href="#Q"/><use transform="matrix(0.008173828125000001,0,0,0.008173828125000001,169.296328125,0)" xlink:href="#O"/><use transform="matrix(0.008173828125000001,0,0,0.008173828125000001,176.23590820312498,0)" xlink:href="#W"/><use transform="matrix(0.008173828125000001,0,0,0.008173828125000001,180.77238281249998,0)" xlink:href="#L"/></g><path fill="#333" d="M135 0v-1490h581c339 0 533 192 533 485 0 204-94 351-264 424L1302 0H964L680-532H440V0H135zm305-779h220c186 0 274-77 274-226 0-150-88-233-275-233H440v459" id="ah"/><path fill="#333" d="M128 0v-1490h300v802h17l366-430h347L740-633 1179 0H826L514-456l-86 97V0H128" id="ai"/><g id="k"><use transform="matrix(0.008173828125000001,0,0,0.008173828125000001,0,0)" xlink:href="#K"/><use transform="matrix(0.008173828125000001,0,0,0.008173828125000001,12.383349609375001,0)" xlink:href="#L"/><use transform="matrix(0.008173828125000001,0,0,0.008173828125000001,22.649677734375004,0)" xlink:href="#M"/><use transform="matrix(0.008173828125000001,0,0,0.008173828125000001,33.071308593750004,0)" xlink:href="#N"/><use transform="matrix(0.008173828125000001,0,0,0.008173828125000001,39.201679687500004,0)" xlink:href="#O"/><use transform="matrix(0.008173828125000001,0,0,0.008173828125000001,45.609960937500006,0)" xlink:href="#L"/><use transform="matrix(0.008173828125000001,0,0,0.008173828125000001,55.87628906250001,0)" xlink:href="#P"/><use transform="matrix(0.008173828125000001,0,0,0.008173828125000001,60.412763671875005,0)" xlink:href="#Q"/><use transform="matrix(0.008173828125000001,0,0,0.008173828125000001,70.1314453125,0)" xlink:href="#R"/><use transform="matrix(0.008173828125000001,0,0,0.008173828125000001,80.683857421875,0)" xlink:href="#L"/><use transform="matrix(0.008173828125000001,0,0,0.008173828125000001,90.950185546875,0)" xlink:href="#O"/><use transform="matrix(0.008173828125000001,0,0,0.008173828125000001,98.028720703125,0)" xlink:href="#ah"/><use transform="matrix(0.008173828125000001,0,0,0.008173828125000001,108.94078125000001,0)" xlink:href="#Q"/><use transform="matrix(0.008173828125000001,0,0,0.008173828125000001,118.65946289062501,0)" xlink:href="#M"/><use transform="matrix(0.008173828125000001,0,0,0.008173828125000001,129.08109375,0)" xlink:href="#ai"/><use transform="matrix(0.008173828125000001,0,0,0.008173828125000001,138.7916015625,0)" xlink:href="#W"/><use transform="matrix(0.008173828125000001,0,0,0.008173828125000001,143.328076171875,0)" xlink:href="#M"/><use transform="matrix(0.008173828125000001,0,0,0.008173828125000001,153.74970703125,0)" xlink:href="#ad"/></g><g id="l"><use transform="matrix(0.008173828125000001,0,0,0.008173828125000001,0,0)" xlink:href="#ag"/><use transform="matrix(0.008173828125000001,0,0,0.008173828125000001,12.563173828125002,0)" xlink:href="#T"/><use transform="matrix(0.008173828125000001,0,0,0.008173828125000001,22.535244140625004,0)" xlink:href="#U"/><use transform="matrix(0.008173828125000001,0,0,0.008173828125000001,31.910625000000003,0)" xlink:href="#N"/><use transform="matrix(0.008173828125000001,0,0,0.008173828125000001,38.04099609375,0)" xlink:href="#W"/><use transform="matrix(0.008173828125000001,0,0,0.008173828125000001,42.577470703125,0)" xlink:href="#L"/><use transform="matrix(0.008173828125000001,0,0,0.008173828125000001,52.843798828125,0)" xlink:href="#M"/><use transform="matrix(0.008173828125000001,0,0,0.008173828125000001,63.2654296875,0)" xlink:href="#S"/><use transform="matrix(0.008173828125000001,0,0,0.008173828125000001,73.899580078125,0)" xlink:href="#Q"/><use transform="matrix(0.008173828125000001,0,0,0.008173828125000001,83.61826171875,0)" xlink:href="#O"/><use transform="matrix(0.008173828125000001,0,0,0.008173828125000001,90.76218750000001,0)" xlink:href="#N"/><use transform="matrix(0.008173828125000001,0,0,0.008173828125000001,96.89255859375001,0)" xlink:href="#W"/><use transform="matrix(0.008173828125000001,0,0,0.008173828125000001,101.42903320312502,0)" xlink:href="#R"/><use transform="matrix(0.008173828125000001,0,0,0.008173828125000001,111.98144531250001,0)" xlink:href="#Q"/><use transform="matrix(0.008173828125000001,0,0,0.008173828125000001,120.85004882812501,0)" xlink:href="#Y"/><use transform="matrix(0.008173828125000001,0,0,0.008173828125000001,133.34783203125002,0)" xlink:href="#W"/><use transform="matrix(0.008173828125000001,0,0,0.008173828125000001,137.88430664062503,0)" xlink:href="#T"/><use transform="matrix(0.008173828125000001,0,0,0.008173828125000001,147.62750976562504,0)" xlink:href="#Z"/></g><path fill="#333" d="M750-1118v229H516V0H217v-889H20v-229h197v-86c0-238 156-356 363-356 94 0 178 20 215 31l-54 226c-25-7-61-15-100-15-123-3-131 84-125 200h234" id="aj"/><g id="m"><use transform="matrix(0.008173828125000001,0,0,0.008173828125000001,0,0)" xlink:href="#X"/><use transform="matrix(0.008173828125000001,0,0,0.008173828125000001,15.595664062500003,0)" xlink:href="#L"/><use transform="matrix(0.008173828125000001,0,0,0.008173828125000001,25.861992187500004,0)" xlink:href="#R"/><use transform="matrix(0.008173828125000001,0,0,0.008173828125000001,36.414404296875006,0)" xlink:href="#W"/><use transform="matrix(0.008173828125000001,0,0,0.008173828125000001,40.950878906250004,0)" xlink:href="#aj"/><use transform="matrix(0.008173828125000001,0,0,0.008173828125000001,47.75150390625001,0)" xlink:href="#W"/><use transform="matrix(0.008173828125000001,0,0,0.008173828125000001,52.28797851562501,0)" xlink:href="#V"/><use transform="matrix(0.008173828125000001,0,0,0.008173828125000001,62.30091796875001,0)" xlink:href="#Q"/><use transform="matrix(0.008173828125000001,0,0,0.008173828125000001,72.019599609375,0)" xlink:href="#O"/><use transform="matrix(0.008173828125000001,0,0,0.008173828125000001,79.098134765625,0)" xlink:href="#af"/><use transform="matrix(0.008173828125000001,0,0,0.008173828125000001,91.1872265625,0)" xlink:href="#W"/><use transform="matrix(0.008173828125000001,0,0,0.008173828125000001,95.723701171875,0)" xlink:href="#V"/><use transform="matrix(0.008173828125000001,0,0,0.008173828125000001,105.57316406250001,0)" xlink:href="#V"/><use transform="matrix(0.008173828125000001,0,0,0.008173828125000001,115.42262695312502,0)" xlink:href="#W"/><use transform="matrix(0.008173828125000001,0,0,0.008173828125000001,119.95910156250002,0)" xlink:href="#L"/><use transform="matrix(0.008173828125000001,0,0,0.008173828125000001,130.22542968750003,0)" xlink:href="#M"/><use transform="matrix(0.008173828125000001,0,0,0.008173828125000001,140.64706054687503,0)" xlink:href="#Q"/><use transform="matrix(0.008173828125000001,0,0,0.008173828125000001,150.36574218750002,0)" xlink:href="#O"/><use transform="matrix(0.008173828125000001,0,0,0.008173828125000001,157.305322265625,0)" xlink:href="#W"/><use transform="matrix(0.008173828125000001,0,0,0.008173828125000001,161.841796875,0)" xlink:href="#L"/><use transform="matrix(0.008173828125000001,0,0,0.008173828125000001,171.086396484375,0)" xlink:href="#Y"/><use transform="matrix(0.008173828125000001,0,0,0.008173828125000001,183.5841796875,0)" xlink:href="#W"/><use transform="matrix(0.008173828125000001,0,0,0.008173828125000001,188.12065429687502,0)" xlink:href="#T"/><use transform="matrix(0.008173828125000001,0,0,0.008173828125000001,197.86385742187503,0)" xlink:href="#Z"/></g><g id="n"><use transform="matrix(0.008173828125000001,0,0,0.008173828125000001,0,0)" xlink:href="#K"/><use transform="matrix(0.008173828125000001,0,0,0.008173828125000001,12.383349609375001,0)" xlink:href="#L"/><use transform="matrix(0.008173828125000001,0,0,0.008173828125000001,22.649677734375004,0)" xlink:href="#M"/><use transform="matrix(0.008173828125000001,0,0,0.008173828125000001,33.071308593750004,0)" xlink:href="#aj"/><use transform="matrix(0.008173828125000001,0,0,0.008173828125000001,39.87193359375001,0)" xlink:href="#W"/><use transform="matrix(0.008173828125000001,0,0,0.008173828125000001,44.408408203125006,0)" xlink:href="#ad"/><use transform="matrix(0.008173828125000001,0,0,0.008173828125000001,54.985341796875005,0)" xlink:href="#S"/><use transform="matrix(0.008173828125000001,0,0,0.008173828125000001,65.6194921875,0)" xlink:href="#Q"/><use transform="matrix(0.008173828125000001,0,0,0.008173828125000001,75.33817382812501,0)" xlink:href="#O"/><use transform="matrix(0.008173828125000001,0,0,0.008173828125000001,82.48209960937501,0)" xlink:href="#N"/><use transform="matrix(0.008173828125000001,0,0,0.008173828125000001,88.61247070312501,0)" xlink:href="#W"/><use transform="matrix(0.008173828125000001,0,0,0.008173828125000001,93.1489453125,0)" xlink:href="#R"/><use transform="matrix(0.008173828125000001,0,0,0.008173828125000001,103.70135742187502,0)" xlink:href="#Q"/><use transform="matrix(0.008173828125000001,0,0,0.008173828125000001,112.56996093750001,0)" xlink:href="#Y"/><use transform="matrix(0.008173828125000001,0,0,0.008173828125000001,125.06774414062501,0)" xlink:href="#W"/><use transform="matrix(0.008173828125000001,0,0,0.008173828125000001,129.60421875,0)" xlink:href="#T"/><use transform="matrix(0.008173828125000001,0,0,0.008173828125000001,139.347421875,0)" xlink:href="#Z"/></g><path d="M646 20c-332 0-524-278-524-764 0-483 194-766 524-766s524 283 524 766c0 485-191 764-524 764zm0-166c218 0 341-220 341-598 0-380-123-601-341-601s-341 222-341 601c0 378 123 598 341 598" id="ak"/><path d="M295 13c-75 0-135-60-135-135s60-135 135-135 135 60 135 135S370 13 295 13" id="al"/><g id="o"><use transform="matrix(0.008173828125000001,0,0,0.008173828125000001,0,0)" xlink:href="#ak"/><use transform="matrix(0.008173828125000001,0,0,0.008173828125000001,10.135546875000001,0)" xlink:href="#al"/><use transform="matrix(0.008173828125000001,0,0,0.008173828125000001,14.958105468750002,0)" xlink:href="#al"/><use transform="matrix(0.008173828125000001,0,0,0.008173828125000001,18.333896484375003,0)" xlink:href="#aa"/></g><path fill="#333" d="M75-1237v-253h1217v253H837V0H531v-1237H75" id="am"/><path fill="#333" d="M754 19C571 19 479-89 437-179h-14V0H128v-1490h300v560h9c41-89 129-202 319-202 248 0 453 193 453 575 0 372-197 576-455 576zm-92-241c156 0 240-139 240-336 0-196-83-334-240-334-154 0-241 131-241 334 0 202 88 336 241 336" id="an"/><g id="p"><use transform="matrix(0.008173828125000001,0,0,0.008173828125000001,0,0)" xlink:href="#Y"/><use transform="matrix(0.008173828125000001,0,0,0.008173828125000001,12.497783203125001,0)" xlink:href="#W"/><use transform="matrix(0.008173828125000001,0,0,0.008173828125000001,17.0342578125,0)" xlink:href="#U"/><use transform="matrix(0.008173828125000001,0,0,0.008173828125000001,26.409638671875,0)" xlink:href="#N"/><use transform="matrix(0.008173828125000001,0,0,0.008173828125000001,32.621748046875005,0)" xlink:href="#Q"/><use transform="matrix(0.008173828125000001,0,0,0.008173828125000001,41.155224609375004,0)" xlink:href="#am"/><use transform="matrix(0.008173828125000001,0,0,0.008173828125000001,51.102773437500005,0)" xlink:href="#Q"/><use transform="matrix(0.008173828125000001,0,0,0.008173828125000001,60.821455078125005,0)" xlink:href="#an"/><use transform="matrix(0.008173828125000001,0,0,0.008173828125000001,71.37386718750001,0)" xlink:href="#P"/><use transform="matrix(0.008173828125000001,0,0,0.008173828125000001,75.91034179687503,0)" xlink:href="#T"/><use transform="matrix(0.008173828125000001,0,0,0.008173828125000001,85.88241210937503,0)" xlink:href="#O"/><use transform="matrix(0.008173828125000001,0,0,0.008173828125000001,92.29069335937503,0)" xlink:href="#L"/></g><g id="q"><use transform="matrix(0.008173828125000001,0,0,0.008173828125000001,0,0)" xlink:href="#K"/><use transform="matrix(0.008173828125000001,0,0,0.008173828125000001,12.383349609375001,0)" xlink:href="#O"/><use transform="matrix(0.008173828125000001,0,0,0.008173828125000001,18.791630859375,0)" xlink:href="#T"/><use transform="matrix(0.008173828125000001,0,0,0.008173828125000001,28.927177734375004,0)" xlink:href="#Q"/><use transform="matrix(0.008173828125000001,0,0,0.008173828125000001,38.645859375,0)" xlink:href="#O"/><use transform="matrix(0.008173828125000001,0,0,0.008173828125000001,45.72439453125,0)" xlink:href="#af"/><use transform="matrix(0.008173828125000001,0,0,0.008173828125000001,57.813486328125,0)" xlink:href="#W"/><use transform="matrix(0.008173828125000001,0,0,0.008173828125000001,62.3499609375,0)" xlink:href="#V"/><use transform="matrix(0.008173828125000001,0,0,0.008173828125000001,72.199423828125,0)" xlink:href="#V"/><use transform="matrix(0.008173828125000001,0,0,0.008173828125000001,82.04888671875001,0)" xlink:href="#W"/><use transform="matrix(0.008173828125000001,0,0,0.008173828125000001,86.585361328125,0)" xlink:href="#L"/><use transform="matrix(0.008173828125000001,0,0,0.008173828125000001,96.851689453125,0)" xlink:href="#M"/><use transform="matrix(0.008173828125000001,0,0,0.008173828125000001,107.27332031250002,0)" xlink:href="#Q"/><use transform="matrix(0.008173828125000001,0,0,0.008173828125000001,116.99200195312503,0)" xlink:href="#O"/><use transform="matrix(0.008173828125000001,0,0,0.008173828125000001,123.93158203125003,0)" xlink:href="#W"/><use transform="matrix(0.008173828125000001,0,0,0.008173828125000001,128.46805664062504,0)" xlink:href="#L"/><use transform="matrix(0.008173828125000001,0,0,0.008173828125000001,137.71265625000004,0)" xlink:href="#Y"/><use transform="matrix(0.008173828125000001,0,0,0.008173828125000001,150.21043945312505,0)" xlink:href="#W"/><use transform="matrix(0.008173828125000001,0,0,0.008173828125000001,154.74691406250005,0)" xlink:href="#T"/><use transform="matrix(0.008173828125000001,0,0,0.008173828125000001,164.49011718750006,0)" xlink:href="#Z"/></g><path fill="#333" d="M135 0v-1490h305v602h649v-602h306V0h-306v-635H440V0H135" id="ao"/><g id="r"><use transform="matrix(0.008173828125000001,0,0,0.008173828125000001,0,0)" xlink:href="#ao"/><use transform="matrix(0.008173828125000001,0,0,0.008173828125000001,12.505957031250002,0)" xlink:href="#W"/><use transform="matrix(0.008173828125000001,0,0,0.008173828125000001,17.042431640625004,0)" xlink:href="#U"/><use transform="matrix(0.008173828125000001,0,0,0.008173828125000001,26.417812500000004,0)" xlink:href="#N"/><use transform="matrix(0.008173828125000001,0,0,0.008173828125000001,32.38470703125,0)" xlink:href="#L"/><use transform="matrix(0.008173828125000001,0,0,0.008173828125000001,42.65103515625,0)" xlink:href="#O"/><use transform="matrix(0.008173828125000001,0,0,0.008173828125000001,49.59061523437501,0)" xlink:href="#W"/><use transform="matrix(0.008173828125000001,0,0,0.008173828125000001,54.12708984375001,0)" xlink:href="#Q"/><use transform="matrix(0.008173828125000001,0,0,0.008173828125000001,63.84577148437501,0)" xlink:href="#P"/><use transform="matrix(0.008173828125000001,0,0,0.008173828125000001,68.38224609375001,0)" xlink:href="#ab"/><use transform="matrix(0.008173828125000001,0,0,0.008173828125000001,78.16631835937501,0)" xlink:href="#ac"/><use transform="matrix(0.008173828125000001,0,0,0.008173828125000001,88.58794921875001,0)" xlink:href="#ad"/><use transform="matrix(0.008173828125000001,0,0,0.008173828125000001,99.16488281250001,0)" xlink:href="#Q"/><use transform="matrix(0.008173828125000001,0,0,0.008173828125000001,108.88356445312502,0)" xlink:href="#R"/><use transform="matrix(0.008173828125000001,0,0,0.008173828125000001,119.43597656250002,0)" xlink:href="#L"/><use transform="matrix(0.008173828125000001,0,0,0.008173828125000001,129.70230468750003,0)" xlink:href="#O"/><use transform="matrix(0.008173828125000001,0,0,0.008173828125000001,136.51927734375002,0)" xlink:href="#Y"/><use transform="matrix(0.008173828125000001,0,0,0.008173828125000001,149.01706054687503,0)" xlink:href="#W"/><use transform="matrix(0.008173828125000001,0,0,0.008173828125000001,153.55353515625004,0)" xlink:href="#T"/><use transform="matrix(0.008173828125000001,0,0,0.008173828125000001,163.29673828125004,0)" xlink:href="#Z"/></g><path fill="#333" d="M128 418v-1536h295v188h14c41-89 129-202 319-202 248 0 453 193 453 575 0 372-197 576-455 576-183 0-275-108-317-198h-9v597H128zm534-640c156 0 240-139 240-336 0-196-83-334-240-334-154 0-241 131-241 334 0 202 88 336 241 336" id="ap"/><g id="s"><use transform="matrix(0.008173828125000001,0,0,0.008173828125000001,0,0)" xlink:href="#S"/><use transform="matrix(0.008173828125000001,0,0,0.008173828125000001,10.634150390625,0)" xlink:href="#Q"/><use transform="matrix(0.008173828125000001,0,0,0.008173828125000001,20.352832031250003,0)" xlink:href="#ac"/><use transform="matrix(0.008173828125000001,0,0,0.008173828125000001,30.774462890625003,0)" xlink:href="#U"/><use transform="matrix(0.008173828125000001,0,0,0.008173828125000001,40.14984375,0)" xlink:href="#Q"/><use transform="matrix(0.008173828125000001,0,0,0.008173828125000001,49.868525390625,0)" xlink:href="#S"/><use transform="matrix(0.008173828125000001,0,0,0.008173828125000001,60.57624023437501,0)" xlink:href="#L"/><use transform="matrix(0.008173828125000001,0,0,0.008173828125000001,70.84256835937501,0)" xlink:href="#ap"/><use transform="matrix(0.008173828125000001,0,0,0.008173828125000001,81.39498046875,0)" xlink:href="#ac"/><use transform="matrix(0.008173828125000001,0,0,0.008173828125000001,91.816611328125,0)" xlink:href="#ap"/></g><path fill="#333" d="M120 396l69-226c123 42 245 23 254-107l8-60L31-1118h319c87 288 199 559 259 872 72-308 185-583 277-872h315L726 132c-68 181-186 294-410 294-79 0-153-13-196-30" id="aq"/><g id="t"><use transform="matrix(0.008173828125000001,0,0,0.008173828125000001,0,0)" xlink:href="#K"/><use transform="matrix(0.008173828125000001,0,0,0.008173828125000001,12.383349609375001,0)" xlink:href="#Q"/><use transform="matrix(0.008173828125000001,0,0,0.008173828125000001,22.102031250000003,0)" xlink:href="#U"/><use transform="matrix(0.008173828125000001,0,0,0.008173828125000001,31.477412109375003,0)" xlink:href="#W"/><use transform="matrix(0.008173828125000001,0,0,0.008173828125000001,36.01388671875,0)" xlink:href="#P"/><use transform="matrix(0.008173828125000001,0,0,0.008173828125000001,40.550361328125,0)" xlink:href="#P"/><use transform="matrix(0.008173828125000001,0,0,0.008173828125000001,45.0868359375,0)" xlink:href="#Q"/><use transform="matrix(0.008173828125000001,0,0,0.008173828125000001,54.805517578125,0)" xlink:href="#af"/><use transform="matrix(0.008173828125000001,0,0,0.008173828125000001,66.894609375,0)" xlink:href="#W"/><use transform="matrix(0.008173828125000001,0,0,0.008173828125000001,71.43108398437501,0)" xlink:href="#U"/><use transform="matrix(0.008173828125000001,0,0,0.008173828125000001,80.80646484375,0)" xlink:href="#ap"/><use transform="matrix(0.008173828125000001,0,0,0.008173828125000001,91.358876953125,0)" xlink:href="#P"/><use transform="matrix(0.008173828125000001,0,0,0.008173828125000001,95.89535156250001,0)" xlink:href="#Q"/><use transform="matrix(0.008173828125000001,0,0,0.008173828125000001,105.32794921875,0)" xlink:href="#aq"/></g><path fill="#333" d="M135 0v-1490h980v253H440v416h609v249H440V0H135" id="ar"/><path fill="#333" d="M428-647V0H128v-1490h294v586c65-146 175-228 341-228 232 0 385 159 385 421V0H847v-659c0-139-76-222-202-222-128 0-217 86-217 234" id="as"/><g id="u"><use transform="matrix(0.008173828125000001,0,0,0.008173828125000001,0,0)" xlink:href="#ar"/><use transform="matrix(0.008173828125000001,0,0,0.008173828125000001,9.824941406250002,0)" xlink:href="#W"/><use transform="matrix(0.008173828125000001,0,0,0.008173828125000001,14.361416015625002,0)" xlink:href="#V"/><use transform="matrix(0.008173828125000001,0,0,0.008173828125000001,24.210878906250002,0)" xlink:href="#as"/><use transform="matrix(0.008173828125000001,0,0,0.008173828125000001,34.632509765625,0)" xlink:href="#Q"/></g><path fill="#333" d="M166-471v-247l1019-454v289L492-601v13l693 282v287" id="at"/><path fill="#333" d="M1224-471L205-19v-287l694-281v-14L205-883v-289l1019 454v247" id="au"/><g id="v"><use transform="matrix(0.008680555555555556,0,0,0.008680555555555556,0,0)" xlink:href="#at"/><use transform="matrix(0.008680555555555556,0,0,0.008680555555555556,12.065972222222223,0)" xlink:href="#at"/><use transform="matrix(0.008680555555555556,0,0,0.008680555555555556,24.131944444444446,0)" xlink:href="#V"/><use transform="matrix(0.008680555555555556,0,0,0.008680555555555556,34.59201388888889,0)" xlink:href="#O"/><use transform="matrix(0.008680555555555556,0,0,0.008680555555555556,41.39756944444444,0)" xlink:href="#T"/><use transform="matrix(0.008680555555555556,0,0,0.008680555555555556,52.16145833333334,0)" xlink:href="#Q"/><use transform="matrix(0.008680555555555556,0,0,0.008680555555555556,62.4826388888889,0)" xlink:href="#N"/><use transform="matrix(0.008680555555555556,0,0,0.008680555555555556,68.81944444444446,0)" xlink:href="#T"/><use transform="matrix(0.008680555555555556,0,0,0.008680555555555556,79.40972222222223,0)" xlink:href="#U"/><use transform="matrix(0.008680555555555556,0,0,0.008680555555555556,89.36631944444447,0)" xlink:href="#au"/><use transform="matrix(0.008680555555555556,0,0,0.008680555555555556,101.43229166666669,0)" xlink:href="#au"/></g><g id="w"><use transform="matrix(0.008173828125000001,0,0,0.008173828125000001,0,0)" xlink:href="#K"/><use transform="matrix(0.008173828125000001,0,0,0.008173828125000001,12.383349609375001,0)" xlink:href="#Q"/><use transform="matrix(0.008173828125000001,0,0,0.008173828125000001,22.102031250000003,0)" xlink:href="#ae"/><use transform="matrix(0.008173828125000001,0,0,0.008173828125000001,37.37891601562501,0)" xlink:href="#an"/><use transform="matrix(0.008173828125000001,0,0,0.008173828125000001,47.93132812500001,0)" xlink:href="#W"/><use transform="matrix(0.008173828125000001,0,0,0.008173828125000001,52.467802734375006,0)" xlink:href="#Q"/><use transform="matrix(0.008173828125000001,0,0,0.008173828125000001,62.186484375000006,0)" xlink:href="#O"/><use transform="matrix(0.008173828125000001,0,0,0.008173828125000001,69.26501953125,0)" xlink:href="#ar"/><use transform="matrix(0.008173828125000001,0,0,0.008173828125000001,79.08996093750001,0)" xlink:href="#W"/><use transform="matrix(0.008173828125000001,0,0,0.008173828125000001,83.62643554687502,0)" xlink:href="#V"/><use transform="matrix(0.008173828125000001,0,0,0.008173828125000001,93.47589843750002,0)" xlink:href="#as"/><use transform="matrix(0.008173828125000001,0,0,0.008173828125000001,103.89752929687502,0)" xlink:href="#Q"/><use transform="matrix(0.008173828125000001,0,0,0.008173828125000001,113.61621093750003,0)" xlink:href="#U"/><use transform="matrix(0.008173828125000001,0,0,0.008173828125000001,122.99159179687503,0)" xlink:href="#S"/><use transform="matrix(0.008173828125000001,0,0,0.008173828125000001,133.69930664062503,0)" xlink:href="#L"/><use transform="matrix(0.008173828125000001,0,0,0.008173828125000001,143.96563476562503,0)" xlink:href="#ap"/><use transform="matrix(0.008173828125000001,0,0,0.008173828125000001,154.51804687500004,0)" xlink:href="#ac"/><use transform="matrix(0.008173828125000001,0,0,0.008173828125000001,164.93967773437504,0)" xlink:href="#ap"/></g><g id="x"><use transform="matrix(0.008173828125000001,0,0,0.008173828125000001,0,0)" xlink:href="#ah"/><use transform="matrix(0.008173828125000001,0,0,0.008173828125000001,10.912060546875,0)" xlink:href="#Q"/><use transform="matrix(0.008173828125000001,0,0,0.008173828125000001,20.6307421875,0)" xlink:href="#M"/><use transform="matrix(0.008173828125000001,0,0,0.008173828125000001,31.052373046875005,0)" xlink:href="#ai"/><use transform="matrix(0.008173828125000001,0,0,0.008173828125000001,40.762880859375,0)" xlink:href="#W"/><use transform="matrix(0.008173828125000001,0,0,0.008173828125000001,45.29935546875,0)" xlink:href="#M"/><use transform="matrix(0.008173828125000001,0,0,0.008173828125000001,55.720986328125,0)" xlink:href="#ad"/><use transform="matrix(0.008173828125000001,0,0,0.008173828125000001,66.297919921875,0)" xlink:href="#Y"/><use transform="matrix(0.008173828125000001,0,0,0.008173828125000001,78.795703125,0)" xlink:href="#W"/><use transform="matrix(0.008173828125000001,0,0,0.008173828125000001,83.33217773437501,0)" xlink:href="#T"/><use transform="matrix(0.008173828125000001,0,0,0.008173828125000001,93.075380859375,0)" xlink:href="#Z"/></g><g id="y"><use transform="matrix(0.008173828125000001,0,0,0.008173828125000001,0,0)" xlink:href="#ag"/><use transform="matrix(0.008173828125000001,0,0,0.008173828125000001,12.563173828125002,0)" xlink:href="#T"/><use transform="matrix(0.008173828125000001,0,0,0.008173828125000001,22.535244140625004,0)" xlink:href="#U"/><use transform="matrix(0.008173828125000001,0,0,0.008173828125000001,31.910625000000003,0)" xlink:href="#N"/><use transform="matrix(0.008173828125000001,0,0,0.008173828125000001,38.04099609375,0)" xlink:href="#W"/><use transform="matrix(0.008173828125000001,0,0,0.008173828125000001,42.577470703125,0)" xlink:href="#L"/><use transform="matrix(0.008173828125000001,0,0,0.008173828125000001,52.843798828125,0)" xlink:href="#M"/><use transform="matrix(0.008173828125000001,0,0,0.008173828125000001,63.2654296875,0)" xlink:href="#af"/><use transform="matrix(0.008173828125000001,0,0,0.008173828125000001,75.354521484375,0)" xlink:href="#W"/><use transform="matrix(0.008173828125000001,0,0,0.008173828125000001,79.89099609375,0)" xlink:href="#V"/><use transform="matrix(0.008173828125000001,0,0,0.008173828125000001,89.74045898437501,0)" xlink:href="#V"/><use transform="matrix(0.008173828125000001,0,0,0.008173828125000001,99.58992187500002,0)" xlink:href="#W"/><use transform="matrix(0.008173828125000001,0,0,0.008173828125000001,104.12639648437502,0)" xlink:href="#L"/><use transform="matrix(0.008173828125000001,0,0,0.008173828125000001,114.39272460937502,0)" xlink:href="#M"/><use transform="matrix(0.008173828125000001,0,0,0.008173828125000001,124.81435546875002,0)" xlink:href="#Q"/><use transform="matrix(0.008173828125000001,0,0,0.008173828125000001,134.53303710937502,0)" xlink:href="#O"/><use transform="matrix(0.008173828125000001,0,0,0.008173828125000001,141.4726171875,0)" xlink:href="#W"/><use transform="matrix(0.008173828125000001,0,0,0.008173828125000001,146.009091796875,0)" xlink:href="#L"/><use transform="matrix(0.008173828125000001,0,0,0.008173828125000001,156.275419921875,0)" xlink:href="#U"/><use transform="matrix(0.008173828125000001,0,0,0.008173828125000001,164.890634765625,0)" xlink:href="#Y"/><use transform="matrix(0.008173828125000001,0,0,0.008173828125000001,177.38841796875002,0)" xlink:href="#W"/><use transform="matrix(0.008173828125000001,0,0,0.008173828125000001,181.92489257812503,0)" xlink:href="#T"/><use transform="matrix(0.008173828125000001,0,0,0.008173828125000001,191.66809570312503,0)" xlink:href="#Z"/></g><path fill="#333" d="M440-1490V0H135v-1490h305" id="av"/><g id="z"><use transform="matrix(0.008173828125000001,0,0,0.008173828125000001,0,0)" xlink:href="#av"/><use transform="matrix(0.008173828125000001,0,0,0.008173828125000001,4.699951171875001,0)" xlink:href="#ae"/><use transform="matrix(0.008173828125000001,0,0,0.008173828125000001,19.976835937500002,0)" xlink:href="#ap"/><use transform="matrix(0.008173828125000001,0,0,0.008173828125000001,30.529248046875004,0)" xlink:href="#L"/><use transform="matrix(0.008173828125000001,0,0,0.008173828125000001,40.795576171875005,0)" xlink:href="#O"/><use transform="matrix(0.008173828125000001,0,0,0.008173828125000001,47.93950195312501,0)" xlink:href="#N"/><use transform="matrix(0.008173828125000001,0,0,0.008173828125000001,54.15161132812501,0)" xlink:href="#Q"/><use transform="matrix(0.008173828125000001,0,0,0.008173828125000001,63.87029296875001,0)" xlink:href="#O"/><use transform="matrix(0.008173828125000001,0,0,0.008173828125000001,70.948828125,0)" xlink:href="#af"/><use transform="matrix(0.008173828125000001,0,0,0.008173828125000001,83.037919921875,0)" xlink:href="#W"/><use transform="matrix(0.008173828125000001,0,0,0.008173828125000001,87.57439453125001,0)" xlink:href="#V"/><use transform="matrix(0.008173828125000001,0,0,0.008173828125000001,97.42385742187501,0)" xlink:href="#V"/><use transform="matrix(0.008173828125000001,0,0,0.008173828125000001,107.27332031250002,0)" xlink:href="#W"/><use transform="matrix(0.008173828125000001,0,0,0.008173828125000001,111.80979492187502,0)" xlink:href="#L"/><use transform="matrix(0.008173828125000001,0,0,0.008173828125000001,122.07612304687503,0)" xlink:href="#M"/><use transform="matrix(0.008173828125000001,0,0,0.008173828125000001,132.49775390625004,0)" xlink:href="#Q"/><use transform="matrix(0.008173828125000001,0,0,0.008173828125000001,142.21643554687503,0)" xlink:href="#O"/><use transform="matrix(0.008173828125000001,0,0,0.008173828125000001,149.156015625,0)" xlink:href="#W"/><use transform="matrix(0.008173828125000001,0,0,0.008173828125000001,153.69249023437501,0)" xlink:href="#L"/><use transform="matrix(0.008173828125000001,0,0,0.008173828125000001,163.95881835937502,0)" xlink:href="#S"/><use transform="matrix(0.008173828125000001,0,0,0.008173828125000001,174.666533203125,0)" xlink:href="#L"/><use transform="matrix(0.008173828125000001,0,0,0.008173828125000001,184.932861328125,0)" xlink:href="#ap"/><use transform="matrix(0.008173828125000001,0,0,0.008173828125000001,195.4852734375,0)" xlink:href="#ac"/><use transform="matrix(0.008173828125000001,0,0,0.008173828125000001,205.906904296875,0)" xlink:href="#ap"/></g><g id="A"><use transform="matrix(0.008173828125000001,0,0,0.008173828125000001,0,0)" xlink:href="#K"/><use transform="matrix(0.008173828125000001,0,0,0.008173828125000001,12.383349609375001,0)" xlink:href="#O"/><use transform="matrix(0.008173828125000001,0,0,0.008173828125000001,18.791630859375,0)" xlink:href="#T"/><use transform="matrix(0.008173828125000001,0,0,0.008173828125000001,28.927177734375004,0)" xlink:href="#Q"/><use transform="matrix(0.008173828125000001,0,0,0.008173828125000001,38.645859375,0)" xlink:href="#O"/><use transform="matrix(0.008173828125000001,0,0,0.008173828125000001,44.514667968750004,0)" xlink:href="#ab"/><use transform="matrix(0.008173828125000001,0,0,0.008173828125000001,54.298740234375,0)" xlink:href="#ac"/><use transform="matrix(0.008173828125000001,0,0,0.008173828125000001,64.72037109375,0)" xlink:href="#ad"/><use transform="matrix(0.008173828125000001,0,0,0.008173828125000001,75.2973046875,0)" xlink:href="#Q"/><use transform="matrix(0.008173828125000001,0,0,0.008173828125000001,85.015986328125,0)" xlink:href="#R"/><use transform="matrix(0.008173828125000001,0,0,0.008173828125000001,95.5683984375,0)" xlink:href="#L"/><use transform="matrix(0.008173828125000001,0,0,0.008173828125000001,105.8347265625,0)" xlink:href="#O"/><use transform="matrix(0.008173828125000001,0,0,0.008173828125000001,112.91326171875,0)" xlink:href="#S"/><use transform="matrix(0.008173828125000001,0,0,0.008173828125000001,123.6209765625,0)" xlink:href="#L"/><use transform="matrix(0.008173828125000001,0,0,0.008173828125000001,133.8873046875,0)" xlink:href="#ap"/><use transform="matrix(0.008173828125000001,0,0,0.008173828125000001,144.43971679687502,0)" xlink:href="#ac"/><use transform="matrix(0.008173828125000001,0,0,0.008173828125000001,154.86134765625002,0)" xlink:href="#ap"/></g><path fill="#333" d="M135 0v-1490h997v253H440v360h640v249H440v375h694V0H135" id="aw"/><g id="B"><use transform="matrix(0.008173828125000001,0,0,0.008173828125000001,0,0)" xlink:href="#aw"/><use transform="matrix(0.008173828125000001,0,0,0.008173828125000001,10.1682421875,0)" xlink:href="#P"/><use transform="matrix(0.008173828125000001,0,0,0.008173828125000001,14.704716796875001,0)" xlink:href="#W"/><use transform="matrix(0.008173828125000001,0,0,0.008173828125000001,19.241191406250003,0)" xlink:href="#ae"/><use transform="matrix(0.008173828125000001,0,0,0.008173828125000001,34.51807617187501,0)" xlink:href="#W"/><use transform="matrix(0.008173828125000001,0,0,0.008173828125000001,39.05455078125001,0)" xlink:href="#M"/><use transform="matrix(0.008173828125000001,0,0,0.008173828125000001,49.47618164062501,0)" xlink:href="#Q"/><use transform="matrix(0.008173828125000001,0,0,0.008173828125000001,59.19486328125001,0)" xlink:href="#O"/><use transform="matrix(0.008173828125000001,0,0,0.008173828125000001,65.06367187500001,0)" xlink:href="#ab"/><use transform="matrix(0.008173828125000001,0,0,0.008173828125000001,74.84774414062501,0)" xlink:href="#ac"/><use transform="matrix(0.008173828125000001,0,0,0.008173828125000001,85.26937500000001,0)" xlink:href="#ad"/><use transform="matrix(0.008173828125000001,0,0,0.008173828125000001,95.84630859375001,0)" xlink:href="#Q"/><use transform="matrix(0.008173828125000001,0,0,0.008173828125000001,105.56499023437502,0)" xlink:href="#R"/><use transform="matrix(0.008173828125000001,0,0,0.008173828125000001,116.11740234375002,0)" xlink:href="#L"/><use transform="matrix(0.008173828125000001,0,0,0.008173828125000001,126.38373046875002,0)" xlink:href="#O"/><use transform="matrix(0.008173828125000001,0,0,0.008173828125000001,133.46226562500001,0)" xlink:href="#S"/><use transform="matrix(0.008173828125000001,0,0,0.008173828125000001,144.16998046875,0)" xlink:href="#L"/><use transform="matrix(0.008173828125000001,0,0,0.008173828125000001,154.43630859375,0)" xlink:href="#ap"/><use transform="matrix(0.008173828125000001,0,0,0.008173828125000001,164.988720703125,0)" xlink:href="#ac"/><use transform="matrix(0.008173828125000001,0,0,0.008173828125000001,175.4103515625,0)" xlink:href="#ap"/></g><path fill="#333" d="M49 0l509-1490h400L1480 0h-339l-115-346H497L386 0H49zm524-585h374c-75-213-124-402-192-666-66 268-110 453-182 666" id="ax"/><g id="C"><use transform="matrix(0.008173828125000001,0,0,0.008173828125000001,0,0)" xlink:href="#K"/><use transform="matrix(0.008173828125000001,0,0,0.008173828125000001,12.383349609375001,0)" xlink:href="#L"/><use transform="matrix(0.008173828125000001,0,0,0.008173828125000001,22.649677734375004,0)" xlink:href="#M"/><use transform="matrix(0.008173828125000001,0,0,0.008173828125000001,33.071308593750004,0)" xlink:href="#aj"/><use transform="matrix(0.008173828125000001,0,0,0.008173828125000001,39.87193359375001,0)" xlink:href="#W"/><use transform="matrix(0.008173828125000001,0,0,0.008173828125000001,44.408408203125006,0)" xlink:href="#ad"/><use transform="matrix(0.008173828125000001,0,0,0.008173828125000001,54.985341796875005,0)" xlink:href="#ac"/><use transform="matrix(0.008173828125000001,0,0,0.008173828125000001,65.40697265625,0)" xlink:href="#O"/><use transform="matrix(0.008173828125000001,0,0,0.008173828125000001,71.995078125,0)" xlink:href="#Q"/><use transform="matrix(0.008173828125000001,0,0,0.008173828125000001,81.71375976562501,0)" xlink:href="#V"/><use transform="matrix(0.008173828125000001,0,0,0.008173828125000001,91.56322265625002,0)" xlink:href="#W"/><use transform="matrix(0.008173828125000001,0,0,0.008173828125000001,96.09969726562503,0)" xlink:href="#L"/><use transform="matrix(0.008173828125000001,0,0,0.008173828125000001,106.36602539062503,0)" xlink:href="#M"/><use transform="matrix(0.008173828125000001,0,0,0.008173828125000001,116.78765625000003,0)" xlink:href="#ax"/><use transform="matrix(0.008173828125000001,0,0,0.008173828125000001,128.14927734375004,0)" xlink:href="#aq"/><use transform="matrix(0.008173828125000001,0,0,0.008173828125000001,138.22760742187504,0)" xlink:href="#ac"/><use transform="matrix(0.008173828125000001,0,0,0.008173828125000001,148.64923828125004,0)" xlink:href="#R"/><use transform="matrix(0.008173828125000001,0,0,0.008173828125000001,159.20165039062505,0)" xlink:href="#Q"/><use transform="matrix(0.008173828125000001,0,0,0.008173828125000001,168.07025390625003,0)" xlink:href="#Y"/><use transform="matrix(0.008173828125000001,0,0,0.008173828125000001,180.56803710937504,0)" xlink:href="#W"/><use transform="matrix(0.008173828125000001,0,0,0.008173828125000001,185.10451171875005,0)" xlink:href="#T"/><use transform="matrix(0.008173828125000001,0,0,0.008173828125000001,194.84771484375005,0)" xlink:href="#Z"/></g><g id="D"><use transform="matrix(0.008173828125000001,0,0,0.008173828125000001,0,0)" xlink:href="#K"/><use transform="matrix(0.008173828125000001,0,0,0.008173828125000001,12.383349609375001,0)" xlink:href="#L"/><use transform="matrix(0.008173828125000001,0,0,0.008173828125000001,22.649677734375004,0)" xlink:href="#M"/><use transform="matrix(0.008173828125000001,0,0,0.008173828125000001,33.071308593750004,0)" xlink:href="#aj"/><use transform="matrix(0.008173828125000001,0,0,0.008173828125000001,39.87193359375001,0)" xlink:href="#W"/><use transform="matrix(0.008173828125000001,0,0,0.008173828125000001,44.408408203125006,0)" xlink:href="#ad"/><use transform="matrix(0.008173828125000001,0,0,0.008173828125000001,54.985341796875005,0)" xlink:href="#ac"/><use transform="matrix(0.008173828125000001,0,0,0.008173828125000001,65.40697265625,0)" xlink:href="#O"/><use transform="matrix(0.008173828125000001,0,0,0.008173828125000001,71.995078125,0)" xlink:href="#Q"/><use transform="matrix(0.008173828125000001,0,0,0.008173828125000001,81.71375976562501,0)" xlink:href="#V"/><use transform="matrix(0.008173828125000001,0,0,0.008173828125000001,91.56322265625002,0)" xlink:href="#W"/><use transform="matrix(0.008173828125000001,0,0,0.008173828125000001,96.09969726562503,0)" xlink:href="#L"/><use transform="matrix(0.008173828125000001,0,0,0.008173828125000001,106.36602539062503,0)" xlink:href="#M"/><use transform="matrix(0.008173828125000001,0,0,0.008173828125000001,116.78765625000003,0)" xlink:href="#ag"/><use transform="matrix(0.008173828125000001,0,0,0.008173828125000001,129.35083007812503,0)" xlink:href="#T"/><use transform="matrix(0.008173828125000001,0,0,0.008173828125000001,139.32290039062502,0)" xlink:href="#M"/><use transform="matrix(0.008173828125000001,0,0,0.008173828125000001,149.74453125000002,0)" xlink:href="#T"/><use transform="matrix(0.008173828125000001,0,0,0.008173828125000001,159.71660156250002,0)" xlink:href="#O"/><use transform="matrix(0.008173828125000001,0,0,0.008173828125000001,166.30470703125002,0)" xlink:href="#Q"/><use transform="matrix(0.008173828125000001,0,0,0.008173828125000001,176.023388671875,0)" xlink:href="#P"/><use transform="matrix(0.008173828125000001,0,0,0.008173828125000001,180.55986328125002,0)" xlink:href="#Y"/><use transform="matrix(0.008173828125000001,0,0,0.008173828125000001,193.05764648437503,0)" xlink:href="#W"/><use transform="matrix(0.008173828125000001,0,0,0.008173828125000001,197.59412109375003,0)" xlink:href="#T"/><use transform="matrix(0.008173828125000001,0,0,0.008173828125000001,207.33732421875004,0)" xlink:href="#Z"/></g><g id="E"><use transform="matrix(0.008173828125000001,0,0,0.008173828125000001,0,0)" xlink:href="#K"/><use transform="matrix(0.008173828125000001,0,0,0.008173828125000001,12.383349609375001,0)" xlink:href="#L"/><use transform="matrix(0.008173828125000001,0,0,0.008173828125000001,22.649677734375004,0)" xlink:href="#M"/><use transform="matrix(0.008173828125000001,0,0,0.008173828125000001,33.071308593750004,0)" xlink:href="#aj"/><use transform="matrix(0.008173828125000001,0,0,0.008173828125000001,39.87193359375001,0)" xlink:href="#W"/><use transform="matrix(0.008173828125000001,0,0,0.008173828125000001,44.408408203125006,0)" xlink:href="#ad"/><use transform="matrix(0.008173828125000001,0,0,0.008173828125000001,54.985341796875005,0)" xlink:href="#ac"/><use transform="matrix(0.008173828125000001,0,0,0.008173828125000001,65.40697265625,0)" xlink:href="#O"/><use transform="matrix(0.008173828125000001,0,0,0.008173828125000001,71.995078125,0)" xlink:href="#Q"/><use transform="matrix(0.008173828125000001,0,0,0.008173828125000001,81.71375976562501,0)" xlink:href="#V"/><use transform="matrix(0.008173828125000001,0,0,0.008173828125000001,91.56322265625002,0)" xlink:href="#W"/><use transform="matrix(0.008173828125000001,0,0,0.008173828125000001,96.09969726562503,0)" xlink:href="#L"/><use transform="matrix(0.008173828125000001,0,0,0.008173828125000001,106.36602539062503,0)" xlink:href="#M"/><use transform="matrix(0.008173828125000001,0,0,0.008173828125000001,116.78765625000003,0)" xlink:href="#S"/><use transform="matrix(0.008173828125000001,0,0,0.008173828125000001,127.42180664062504,0)" xlink:href="#Q"/><use transform="matrix(0.008173828125000001,0,0,0.008173828125000001,137.14048828125004,0)" xlink:href="#O"/><use transform="matrix(0.008173828125000001,0,0,0.008173828125000001,144.28441406250002,0)" xlink:href="#N"/><use transform="matrix(0.008173828125000001,0,0,0.008173828125000001,150.41478515625002,0)" xlink:href="#W"/><use transform="matrix(0.008173828125000001,0,0,0.008173828125000001,154.95125976562503,0)" xlink:href="#R"/><use transform="matrix(0.008173828125000001,0,0,0.008173828125000001,165.50367187500004,0)" xlink:href="#Q"/><use transform="matrix(0.008173828125000001,0,0,0.008173828125000001,174.37227539062502,0)" xlink:href="#Y"/><use transform="matrix(0.008173828125000001,0,0,0.008173828125000001,186.87005859375003,0)" xlink:href="#W"/><use transform="matrix(0.008173828125000001,0,0,0.008173828125000001,191.40653320312504,0)" xlink:href="#T"/><use transform="matrix(0.008173828125000001,0,0,0.008173828125000001,201.14973632812504,0)" xlink:href="#Z"/></g><path fill="#333" d="M428-647V0H128v-1118h283l4 231c63-156 176-245 348-245 232 0 384 159 384 421V0H847v-659c0-139-76-222-202-222-128 0-217 86-217 234zm349-635c-128 0-194-103-258-103-41 0-62 39-65 97H289c4-169 85-265 209-265 128 0 188 103 256 103 46 0 64-33 68-97h163c-4 169-89 265-208 265" id="ay"/><path fill="#333" d="M135 0v-1490h305v1237h643V0H135" id="az"/><g id="F"><use transform="matrix(0.008173828125000001,0,0,0.008173828125000001,0,0)" xlink:href="#ax"/><use transform="matrix(0.008173828125000001,0,0,0.008173828125000001,12.497783203125001,0)" xlink:href="#ay"/><use transform="matrix(0.008173828125000001,0,0,0.008173828125000001,22.919414062500003,0)" xlink:href="#Q"/><use transform="matrix(0.008173828125000001,0,0,0.008173828125000001,32.638095703125,0)" xlink:href="#R"/><use transform="matrix(0.008173828125000001,0,0,0.008173828125000001,43.1905078125,0)" xlink:href="#W"/><use transform="matrix(0.008173828125000001,0,0,0.008173828125000001,47.726982421875,0)" xlink:href="#O"/><use transform="matrix(0.008173828125000001,0,0,0.008173828125000001,54.805517578125,0)" xlink:href="#az"/><use transform="matrix(0.008173828125000001,0,0,0.008173828125000001,64.270810546875,0)" xlink:href="#T"/><use transform="matrix(0.008173828125000001,0,0,0.008173828125000001,74.24288085937499,0)" xlink:href="#N"/><use transform="matrix(0.008173828125000001,0,0,0.008173828125000001,80.37325195312499,0)" xlink:href="#O"/><use transform="matrix(0.008173828125000001,0,0,0.008173828125000001,86.961357421875,0)" xlink:href="#Q"/><use transform="matrix(0.008173828125000001,0,0,0.008173828125000001,96.68003906249999,0)" xlink:href="#S"/><use transform="matrix(0.008173828125000001,0,0,0.008173828125000001,107.38775390625,0)" xlink:href="#L"/><use transform="matrix(0.008173828125000001,0,0,0.008173828125000001,117.65408203125,0)" xlink:href="#ap"/><use transform="matrix(0.008173828125000001,0,0,0.008173828125000001,128.206494140625,0)" xlink:href="#ac"/><use transform="matrix(0.008173828125000001,0,0,0.008173828125000001,138.628125,0)" xlink:href="#ap"/></g><g id="G"><use transform="matrix(0.008173828125000001,0,0,0.008173828125000001,0,0)" xlink:href="#ax"/><use transform="matrix(0.008173828125000001,0,0,0.008173828125000001,12.497783203125001,0)" xlink:href="#ay"/><use transform="matrix(0.008173828125000001,0,0,0.008173828125000001,22.919414062500003,0)" xlink:href="#Q"/><use transform="matrix(0.008173828125000001,0,0,0.008173828125000001,32.638095703125,0)" xlink:href="#R"/><use transform="matrix(0.008173828125000001,0,0,0.008173828125000001,43.1905078125,0)" xlink:href="#W"/><use transform="matrix(0.008173828125000001,0,0,0.008173828125000001,47.726982421875,0)" xlink:href="#O"/><use transform="matrix(0.008173828125000001,0,0,0.008173828125000001,54.805517578125,0)" xlink:href="#S"/><use transform="matrix(0.008173828125000001,0,0,0.008173828125000001,65.43966796875,0)" xlink:href="#Q"/><use transform="matrix(0.008173828125000001,0,0,0.008173828125000001,75.158349609375,0)" xlink:href="#P"/><use transform="matrix(0.008173828125000001,0,0,0.008173828125000001,79.69482421875,0)" xlink:href="#Q"/><use transform="matrix(0.008173828125000001,0,0,0.008173828125000001,89.413505859375,0)" xlink:href="#an"/><use transform="matrix(0.008173828125000001,0,0,0.008173828125000001,99.96591796874999,0)" xlink:href="#O"/><use transform="matrix(0.008173828125000001,0,0,0.008173828125000001,106.55402343749999,0)" xlink:href="#Q"/><use transform="matrix(0.008173828125000001,0,0,0.008173828125000001,116.272705078125,0)" xlink:href="#S"/><use transform="matrix(0.008173828125000001,0,0,0.008173828125000001,126.98041992187501,0)" xlink:href="#L"/><use transform="matrix(0.008173828125000001,0,0,0.008173828125000001,137.246748046875,0)" xlink:href="#ap"/><use transform="matrix(0.008173828125000001,0,0,0.008173828125000001,147.79916015625003,0)" xlink:href="#ac"/><use transform="matrix(0.008173828125000001,0,0,0.008173828125000001,158.22079101562503,0)" xlink:href="#ap"/></g><g id="H"><use transform="matrix(0.008173828125000001,0,0,0.008173828125000001,0,0)" xlink:href="#K"/><use transform="matrix(0.008173828125000001,0,0,0.008173828125000001,12.383349609375001,0)" xlink:href="#L"/><use transform="matrix(0.008173828125000001,0,0,0.008173828125000001,22.649677734375004,0)" xlink:href="#M"/><use transform="matrix(0.008173828125000001,0,0,0.008173828125000001,33.071308593750004,0)" xlink:href="#N"/><use transform="matrix(0.008173828125000001,0,0,0.008173828125000001,39.201679687500004,0)" xlink:href="#O"/><use transform="matrix(0.008173828125000001,0,0,0.008173828125000001,45.609960937500006,0)" xlink:href="#L"/><use transform="matrix(0.008173828125000001,0,0,0.008173828125000001,55.87628906250001,0)" xlink:href="#P"/><use transform="matrix(0.008173828125000001,0,0,0.008173828125000001,60.412763671875005,0)" xlink:href="#Q"/><use transform="matrix(0.008173828125000001,0,0,0.008173828125000001,70.1314453125,0)" xlink:href="#R"/><use transform="matrix(0.008173828125000001,0,0,0.008173828125000001,80.683857421875,0)" xlink:href="#L"/><use transform="matrix(0.008173828125000001,0,0,0.008173828125000001,90.950185546875,0)" xlink:href="#O"/><use transform="matrix(0.008173828125000001,0,0,0.008173828125000001,97.767158203125,0)" xlink:href="#K"/><use transform="matrix(0.008173828125000001,0,0,0.008173828125000001,110.15050781250001,0)" xlink:href="#L"/><use transform="matrix(0.008173828125000001,0,0,0.008173828125000001,120.41683593750001,0)" xlink:href="#M"/><use transform="matrix(0.008173828125000001,0,0,0.008173828125000001,130.83846679687503,0)" xlink:href="#aj"/><use transform="matrix(0.008173828125000001,0,0,0.008173828125000001,137.63909179687502,0)" xlink:href="#W"/><use transform="matrix(0.008173828125000001,0,0,0.008173828125000001,142.17556640625003,0)" xlink:href="#ad"/><use transform="matrix(0.008173828125000001,0,0,0.008173828125000001,152.75250000000003,0)" xlink:href="#ac"/><use transform="matrix(0.008173828125000001,0,0,0.008173828125000001,163.17413085937503,0)" xlink:href="#O"/><use transform="matrix(0.008173828125000001,0,0,0.008173828125000001,169.76223632812503,0)" xlink:href="#Q"/><use transform="matrix(0.008173828125000001,0,0,0.008173828125000001,179.48091796875002,0)" xlink:href="#V"/><use transform="matrix(0.008173828125000001,0,0,0.008173828125000001,189.33038085937503,0)" xlink:href="#W"/><use transform="matrix(0.008173828125000001,0,0,0.008173828125000001,193.86685546875003,0)" xlink:href="#L"/><use transform="matrix(0.008173828125000001,0,0,0.008173828125000001,204.13318359375003,0)" xlink:href="#M"/><use transform="matrix(0.008173828125000001,0,0,0.008173828125000001,213.70473632812502,0)" xlink:href="#Y"/><use transform="matrix(0.008173828125000001,0,0,0.008173828125000001,226.20251953125003,0)" xlink:href="#W"/><use transform="matrix(0.008173828125000001,0,0,0.008173828125000001,230.73899414062504,0)" xlink:href="#T"/><use transform="matrix(0.008173828125000001,0,0,0.008173828125000001,240.48219726562505,0)" xlink:href="#Z"/></g><use transform="matrix(0.008173828125000001,0,0,0.008173828125000001,0,0)" xlink:href="#aa" id="I"/><g id="J"><use transform="matrix(0.008173828125000001,0,0,0.008173828125000001,0,0)" xlink:href="#X"/><use transform="matrix(0.008173828125000001,0,0,0.008173828125000001,15.595664062500003,0)" xlink:href="#ac"/><use transform="matrix(0.008173828125000001,0,0,0.008173828125000001,26.017294921875006,0)" xlink:href="#U"/><use transform="matrix(0.008173828125000001,0,0,0.008173828125000001,35.392675781250006,0)" xlink:href="#W"/><use transform="matrix(0.008173828125000001,0,0,0.008173828125000001,39.929150390625004,0)" xlink:href="#V"/><use transform="matrix(0.008173828125000001,0,0,0.008173828125000001,49.77861328125,0)" xlink:href="#X"/><use transform="matrix(0.008173828125000001,0,0,0.008173828125000001,65.37427734375001,0)" xlink:href="#Q"/><use transform="matrix(0.008173828125000001,0,0,0.008173828125000001,75.092958984375,0)" xlink:href="#M"/><use transform="matrix(0.008173828125000001,0,0,0.008173828125000001,85.51458984375,0)" xlink:href="#Q"/><use transform="matrix(0.008173828125000001,0,0,0.008173828125000001,95.233271484375,0)" xlink:href="#ad"/><use transform="matrix(0.008173828125000001,0,0,0.008173828125000001,105.810205078125,0)" xlink:href="#T"/><use transform="matrix(0.008173828125000001,0,0,0.008173828125000001,115.78227539062499,0)" xlink:href="#O"/></g></defs></g></svg>